<svg width="24" height="24" viewBox="0 0 24 24" fill="none" xmlns="http://www.w3.org/2000/svg">
<path d="M3.75787 16.388H20.1329L22.2879 20.068L20.8959 20.965H3.59187L1.86987 20.068L3.75787 16.388Z" fill="#D8D8D8"/>
<mask id="mask0_158_1629" style="mask-type:luminance" maskUnits="userSpaceOnUse" x="1" y="16" width="22" height="5">
<path d="M3.75787 16.388H20.1329L22.2879 20.068L20.8959 20.965H3.59187L1.86987 20.068L3.75787 16.388Z" fill="#FFA0A0"/>
</mask>
<g mask="url(#mask0_158_1629)">
<path d="M23.9998 0H-0.000244141V24H23.9998V0Z" fill="#FFA0A0"/>
</g>
<path d="M12 4L2.99998 20H21L12 4ZM10.2568 3.01948C11.0214 1.66017 12.9785 1.66017 13.7431 3.01948L22.7431 19.0195C23.4931 20.3527 22.5296 22 21 22H2.99998C1.47033 22 0.506901 20.3527 1.25683 19.0195L10.2568 3.01948ZM11 13V18C11 18.5523 11.4477 19 12 19C12.5523 19 13 18.5523 13 18V13C13 12.4477 12.5523 12 12 12C11.4477 12 11 12.4477 11 13ZM12 11C12.5523 11 13 10.5523 13 10C13 9.44772 12.5523 9 12 9C11.4477 9 11 9.44772 11 10C11 10.5523 11.4477 11 12 11Z" fill="black"/>
<mask id="mask1_158_1629" style="mask-type:luminance" maskUnits="userSpaceOnUse" x="0" y="2" width="24" height="20">
<path d="M12 4L2.99998 20H21L12 4ZM10.2568 3.01948C11.0214 1.66017 12.9785 1.66017 13.7431 3.01948L22.7431 19.0195C23.4931 20.3527 22.5296 22 21 22H2.99998C1.47033 22 0.506901 20.3527 1.25683 19.0195L10.2568 3.01948ZM11 13V18C11 18.5523 11.4477 19 12 19C12.5523 19 13 18.5523 13 18V13C13 12.4477 12.5523 12 12 12C11.4477 12 11 12.4477 11 13ZM12 11C12.5523 11 13 10.5523 13 10C13 9.44772 12.5523 9 12 9C11.4477 9 11 9.44772 11 10C11 10.5523 11.4477 11 12 11Z" fill="#7600FF"/>
</mask>
<g mask="url(#mask1_158_1629)">
<path d="M24 0H0V24H24V0Z" fill="#7600FF"/>
</g>
</svg>
