<svg width="48" height="48" viewBox="0 0 48 48" fill="none" xmlns="http://www.w3.org/2000/svg">
<g clip-path="url(#clip0_43_9)">
<path d="M24 47.461C36.9571 47.461 47.4609 36.9572 47.4609 24C47.4609 11.0429 36.9571 0.539093 24 0.539093C11.0429 0.539093 0.539062 11.0429 0.539062 24C0.539062 36.9572 11.0429 47.461 24 47.461Z" fill="#B378FF"/>
<path fill-rule="evenodd" clip-rule="evenodd" d="M24.0001 1.96203e-05C29.5527 -0.000105126 34.9337 1.9251 39.226 5.4476C43.5184 8.9701 46.4566 13.8719 47.5399 19.3179C48.6233 24.7639 47.7848 30.417 45.1674 35.3141C42.5499 40.2111 38.3155 44.0491 33.1855 46.1741C28.0555 48.2991 22.3474 48.5796 17.0338 46.9678C11.7202 45.3559 7.12987 41.9516 4.04494 37.3347C0.960007 32.7178 -0.428642 27.1741 0.1156 21.6482C0.659843 16.1222 3.1033 10.956 7.02964 7.02962C9.25576 4.79769 11.901 3.02768 14.8134 1.82131C17.7257 0.614936 20.8477 -0.00401729 24.0001 1.96203e-05ZM40.2083 7.79176C36.4584 4.04185 31.5243 1.70817 26.2467 1.18834C20.9691 0.66851 15.6745 1.9947 11.2651 4.94095C6.8557 7.8872 3.60427 12.2712 2.06483 17.346C0.525384 22.4208 0.793181 27.8724 2.82259 32.7718C4.852 37.6713 8.51745 41.7155 13.1944 44.2154C17.8713 46.7153 23.2704 47.5162 28.4717 46.4816C33.6729 45.4471 38.3545 42.641 41.7188 38.5417C45.0831 34.4423 46.9219 29.3032 46.9219 24C46.9258 20.9893 46.3347 18.0075 45.1826 15.2259C44.0304 12.4444 42.3399 9.91792 40.2083 7.79176Z" fill="#231F20"/>
<path d="M24 31.7661C30.6974 31.7661 36.1267 27.6269 36.1267 22.5209C36.1267 17.415 30.6974 13.2758 24 13.2758C17.3026 13.2758 11.8733 17.415 11.8733 22.5209C11.8733 27.6269 17.3026 31.7661 24 31.7661Z" fill="#231F20"/>
<path fill-rule="evenodd" clip-rule="evenodd" d="M24.0001 12.7367C27.1942 12.6875 30.318 13.6768 32.9014 15.5559C35.2272 17.329 36.6659 19.7909 36.6659 22.5207C36.6659 25.2505 35.2272 27.7125 32.9014 29.4855C30.318 31.3646 27.1942 32.3539 24.0001 32.3047C20.8059 32.3539 17.6822 31.3646 15.0987 29.4855C12.773 27.7125 11.3342 25.2504 11.3342 22.5207C11.3342 19.791 12.773 17.329 15.0987 15.5559C17.6822 13.6768 20.8059 12.6875 24.0001 12.7367ZM32.2487 16.4112C29.8527 14.6755 26.9582 13.7644 24.0001 13.8149C21.042 13.7644 18.1474 14.6755 15.7515 16.4112C13.6886 17.9838 12.4124 20.145 12.4124 22.5209C12.4124 24.8969 13.6886 27.0581 15.7515 28.6307C18.1474 30.3663 21.042 31.2774 24.0001 31.227C26.9582 31.2774 29.8528 30.3663 32.2487 28.6307C34.3116 27.0581 35.5878 24.8969 35.5878 22.5209C35.5878 20.1449 34.3116 17.9838 32.2487 16.4112Z" fill="#231F20"/>
<path fill-rule="evenodd" clip-rule="evenodd" d="M34.5441 44.9431C31.2723 46.5869 27.6615 47.4429 24 47.4429C20.3386 47.4429 16.7278 46.5869 13.456 44.9431C13.4282 44.6301 13.4128 44.3136 13.4128 43.9934C13.4128 41.1855 14.5283 38.4927 16.5137 36.5072C18.4992 34.5218 21.192 33.4063 23.9999 33.4063C26.8077 33.4063 29.5006 34.5218 31.486 36.5072C33.4715 38.4927 34.5869 41.1855 34.5869 43.9934C34.5871 44.3136 34.5719 44.6301 34.5441 44.9431Z" fill="#4FA392"/>
<path fill-rule="evenodd" clip-rule="evenodd" d="M34.7864 45.4233C31.4407 47.1091 27.7465 47.9873 24.0001 47.9873C20.2537 47.9873 16.5595 47.1091 13.2138 45.4233C13.127 45.3795 13.0536 45.3129 13.0016 45.2307C12.9496 45.1485 12.9209 45.0537 12.9185 44.9565C12.9046 44.7952 12.8939 44.6408 12.8872 44.4942C12.8786 44.3056 12.874 44.1372 12.874 43.9934C12.8805 41.0468 14.0556 38.2231 16.1414 36.1419C18.2273 34.0606 21.0535 32.8918 24.0001 32.8918C26.9467 32.8918 29.7729 34.0606 31.8588 36.1419C33.9446 38.2231 35.1197 41.0468 35.1262 43.9934C35.1262 44.1372 35.1216 44.3054 35.113 44.4942C35.1059 44.6506 35.0943 44.8164 35.079 44.9894C35.0711 45.0806 35.04 45.1682 34.9887 45.244C34.9374 45.3198 34.8676 45.3812 34.7859 45.4223L34.7864 45.4233ZM29.302 46.2869C30.936 45.8998 32.5221 45.3331 34.0314 44.5971L34.0392 44.4477C34.0446 44.3202 34.0481 44.1696 34.0481 43.9933C34.0511 42.6718 33.7935 41.3627 33.2899 40.1409C32.7863 38.9192 32.0467 37.8087 31.1133 36.8732C30.18 35.9377 29.0713 35.1955 27.8507 34.6891C26.6301 34.1827 25.3216 33.922 24.0001 33.922C22.6786 33.922 21.3701 34.1827 20.1495 34.6891C18.9289 35.1955 17.8202 35.9377 16.8869 36.8732C15.9535 37.8087 15.2139 38.9192 14.7103 40.1409C14.2067 41.3627 13.9491 42.6718 13.9521 43.9933C13.9521 44.1696 13.9554 44.3202 13.961 44.4477L13.9688 44.5971C18.7332 46.908 24.1488 47.5048 29.302 46.2869Z" fill="#231F20"/>
<path d="M28.1977 36.4913C28.5728 34.1741 26.9984 31.9915 24.6812 31.6164C22.364 31.2413 20.1814 32.8157 19.8064 35.1329C19.4313 37.4501 21.0057 39.6327 23.3229 40.0078C25.6401 40.3829 27.8226 38.8085 28.1977 36.4913Z" fill="#F9DDD1"/>
<path fill-rule="evenodd" clip-rule="evenodd" d="M24.0001 31.0238C25.1082 31.0237 26.1821 31.4078 27.0387 32.1108C27.8954 32.8137 28.4818 33.7919 28.698 34.8787C28.9143 35.9655 28.747 37.0937 28.2247 38.071C27.7024 39.0483 26.8574 39.8142 25.8336 40.2383C24.8099 40.6624 23.6708 40.7184 22.6103 40.3968C21.5499 40.0752 20.6339 39.3958 20.0182 38.4744C19.4025 37.5531 19.1254 36.4468 19.234 35.344C19.3426 34.2412 19.8302 33.2102 20.6138 32.4266C21.058 31.9812 21.5858 31.628 22.1669 31.3873C22.7481 31.1465 23.3711 31.023 24.0001 31.0238ZM26.6242 33.1888C26.0171 32.5816 25.2183 32.2037 24.3638 32.1195C23.5093 32.0353 22.652 32.25 21.938 32.727C21.2241 33.204 20.6976 33.9138 20.4483 34.7354C20.199 35.5571 20.2424 36.4398 20.5709 37.2331C20.8995 38.0264 21.493 38.6812 22.2502 39.086C23.0075 39.4907 23.8816 39.6204 24.7238 39.4529C25.5659 39.2854 26.3239 38.8311 26.8686 38.1674C27.4134 37.5036 27.7111 36.6716 27.7111 35.8129C27.7117 35.3255 27.6161 34.8427 27.4295 34.3924C27.243 33.9421 26.9693 33.533 26.6242 33.1888Z" fill="#231F20"/>
<path fill-rule="evenodd" clip-rule="evenodd" d="M34.2494 25.5269C34.7751 25.5269 35.289 25.6828 35.7262 25.9749C36.1633 26.2669 36.504 26.6821 36.7051 27.1678C36.9063 27.6535 36.959 28.1879 36.8564 28.7035C36.7538 29.2192 36.5007 29.6928 36.1289 30.0645C35.7572 30.4363 35.2836 30.6894 34.768 30.792C34.2523 30.8945 33.7179 30.8419 33.2322 30.6407C32.7465 30.4395 32.3314 30.0988 32.0393 29.6617C31.7472 29.2246 31.5913 28.7107 31.5913 28.185C31.5913 27.8359 31.66 27.4903 31.7936 27.1677C31.9272 26.8452 32.123 26.5522 32.3698 26.3054C32.6166 26.0586 32.9097 25.8628 33.2322 25.7292C33.5547 25.5956 33.9003 25.5269 34.2494 25.5269Z" fill="#F9DDD1"/>
<path fill-rule="evenodd" clip-rule="evenodd" d="M34.2496 24.9879C34.9893 24.9878 35.7062 25.2443 36.278 25.7135C36.8498 26.1828 37.2413 26.8358 37.3856 27.5613C37.5299 28.2868 37.4183 29.0399 37.0696 29.6922C36.7209 30.3446 36.1568 30.8559 35.4734 31.139C34.79 31.4221 34.0296 31.4595 33.3217 31.2448C32.6139 31.0301 32.0023 30.5765 31.5914 29.9615C31.1804 29.3464 30.9954 28.6079 31.0679 27.8718C31.1404 27.1356 31.4659 26.4474 31.989 25.9243C32.2855 25.627 32.6379 25.3912 33.0258 25.2305C33.4138 25.0698 33.8297 24.9873 34.2496 24.9879ZM35.7481 26.6865C35.4014 26.3396 34.9452 26.1238 34.4572 26.0756C33.9691 26.0275 33.4795 26.15 33.0717 26.4224C32.664 26.6948 32.3632 27.1002 32.2208 27.5694C32.0784 28.0387 32.1031 28.5428 32.2907 28.9959C32.4784 29.449 32.8173 29.823 33.2498 30.0542C33.6822 30.2854 34.1815 30.3595 34.6625 30.2638C35.1435 30.1682 35.5764 29.9087 35.8875 29.5297C36.1986 29.1506 36.3687 28.6754 36.3687 28.185C36.369 27.9066 36.3144 27.631 36.2079 27.3738C36.1014 27.1166 35.9452 26.8831 35.7481 26.6865Z" fill="#231F20"/>
<path fill-rule="evenodd" clip-rule="evenodd" d="M13.7508 25.5269C14.2765 25.5269 14.7904 25.6828 15.2276 25.9748C15.6647 26.2669 16.0054 26.682 16.2066 27.1677C16.4078 27.6534 16.4604 28.1879 16.3579 28.7035C16.2553 29.2191 16.0022 29.6928 15.6304 30.0645C15.2587 30.4363 14.7851 30.6894 14.2694 30.792C13.7538 30.8945 13.2194 30.8419 12.7337 30.6407C12.248 30.4395 11.8328 30.0989 11.5407 29.6617C11.2487 29.2246 11.0928 28.7107 11.0928 28.185C11.0928 27.8359 11.1615 27.4903 11.2951 27.1678C11.4286 26.8453 11.6244 26.5522 11.8713 26.3054C12.1181 26.0586 12.4111 25.8628 12.7336 25.7292C13.0561 25.5956 13.4017 25.5269 13.7508 25.5269Z" fill="#F9DDD1"/>
<path fill-rule="evenodd" clip-rule="evenodd" d="M13.7508 24.9879C14.4906 24.9878 15.2075 25.2442 15.7793 25.7135C16.3512 26.1827 16.7427 26.8358 16.887 27.5613C17.0314 28.2868 16.9197 29.0399 16.571 29.6924C16.2223 30.3448 15.6582 30.8561 14.9748 31.1392C14.2914 31.4223 13.5309 31.4597 12.823 31.245C12.1151 31.0303 11.5036 30.5767 11.0926 29.9617C10.6816 29.3466 10.4966 28.608 10.5691 27.8718C10.6416 27.1357 10.9672 26.4474 11.4902 25.9243C11.7868 25.627 12.1392 25.3912 12.5271 25.2305C12.915 25.0698 13.3309 24.9873 13.7508 24.9879ZM15.2494 26.6865C14.9027 26.3396 14.4464 26.1237 13.9584 26.0755C13.4703 26.0273 12.9806 26.1499 12.5728 26.4223C12.165 26.6947 11.8642 27.1 11.7218 27.5693C11.5794 28.0386 11.6041 28.5428 11.7917 28.9959C11.9793 29.449 12.3182 29.823 12.7507 30.0543C13.1832 30.2855 13.6825 30.3596 14.1635 30.264C14.6445 30.1683 15.0775 29.9088 15.3886 29.5297C15.6998 29.1507 15.8698 28.6754 15.8698 28.185C15.8702 27.9066 15.8156 27.631 15.7091 27.3738C15.6026 27.1167 15.4464 26.8831 15.2494 26.6865Z" fill="#231F20"/>
<path d="M24 35.9138C29.8052 35.9138 34.5112 31.2077 34.5112 25.4026C34.5112 19.5974 29.8052 14.8913 24 14.8913C18.1948 14.8913 13.4888 19.5974 13.4888 25.4026C13.4888 31.2077 18.1948 35.9138 24 35.9138Z" fill="#F9DDD1"/>
<path fill-rule="evenodd" clip-rule="evenodd" d="M24.0001 14.3522C26.5568 14.3522 29.0344 15.2386 31.0108 16.8606C32.9872 18.4825 34.34 20.7395 34.8388 23.2471C35.3376 25.7546 34.9515 28.3576 33.7463 30.6124C32.5411 32.8672 30.5914 34.6344 28.2293 35.6128C25.8672 36.5912 23.2389 36.7203 20.7923 35.9781C18.3457 35.2359 16.2322 33.6683 14.8118 31.5425C13.3914 29.4166 12.7521 26.864 13.0027 24.3196C13.2534 21.7753 14.3785 19.3965 16.1864 17.5887C17.2114 16.561 18.4293 15.7461 19.7703 15.1906C21.1112 14.6351 22.5487 14.3504 24.0001 14.3522ZM31.0515 18.3511C29.4201 16.7197 27.2735 15.7043 24.9774 15.4781C22.6813 15.2519 20.3779 15.8289 18.4595 17.1107C16.5411 18.3924 15.1265 20.2997 14.4567 22.5076C13.787 24.7154 13.9035 27.0872 14.7864 29.2187C15.6693 31.3503 17.2639 33.1098 19.2987 34.1974C21.3334 35.2851 23.6824 35.6335 25.9452 35.1834C28.2081 34.7333 30.2449 33.5125 31.7086 31.729C33.1722 29.9456 33.9722 27.7097 33.9722 25.4026C33.9739 24.0927 33.7168 22.7955 33.2156 21.5854C32.7143 20.3752 31.9789 19.2761 31.0515 18.3511Z" fill="#231F20"/>
<path fill-rule="evenodd" clip-rule="evenodd" d="M21.8897 29.8043C21.7817 29.8962 21.6418 29.9417 21.5004 29.9309C21.359 29.9201 21.2276 29.8539 21.1349 29.7467C21.0421 29.6394 20.9955 29.4999 21.0052 29.3584C21.0148 29.2169 21.08 29.085 21.1865 28.9914C21.9284 28.2834 22.9071 27.8766 23.9323 27.8503C24.9466 27.8962 25.9125 28.2972 26.6611 28.983C26.7711 29.074 26.8405 29.205 26.8539 29.3472C26.8674 29.4893 26.8238 29.631 26.7328 29.741C26.6418 29.8511 26.5108 29.9204 26.3686 29.9339C26.2264 29.9473 26.0848 29.9037 25.9747 29.8127C25.4148 29.2876 24.6898 28.9735 23.9237 28.9242C23.1605 28.9572 22.4363 29.2706 21.8897 29.8043Z" fill="#231F20"/>
<path fill-rule="evenodd" clip-rule="evenodd" d="M17.7612 27.552C17.8215 27.5887 17.874 27.637 17.9156 27.6941C17.9572 27.7511 17.9871 27.8158 18.0038 27.8844C18.0204 27.9531 18.0233 28.0243 18.0124 28.0941C18.0015 28.1638 17.9769 28.2307 17.9401 28.291C17.9034 28.3513 17.8551 28.4037 17.798 28.4454C17.741 28.487 17.6763 28.5169 17.6077 28.5335C17.539 28.5502 17.4678 28.5531 17.398 28.5422C17.3283 28.5313 17.2613 28.5067 17.2011 28.4699L12.8045 25.7902C12.6828 25.7159 12.5955 25.5963 12.562 25.4577C12.5284 25.3191 12.5513 25.1728 12.6256 25.0511C12.6999 24.9294 12.8195 24.8421 12.9581 24.8086C13.0967 24.775 13.2429 24.7979 13.3647 24.8722L17.7612 27.552Z" fill="#231F20"/>
<path fill-rule="evenodd" clip-rule="evenodd" d="M30.799 28.4699C30.7387 28.5067 30.6718 28.5313 30.602 28.5422C30.5322 28.5531 30.461 28.5502 30.3924 28.5335C30.3238 28.5169 30.2591 28.487 30.202 28.4454C30.145 28.4037 30.0967 28.3513 30.0599 28.291C30.0231 28.2307 29.9986 28.1638 29.9877 28.0941C29.9767 28.0243 29.9797 27.9531 29.9963 27.8844C30.0129 27.8158 30.0429 27.7511 30.0845 27.6941C30.1261 27.637 30.1785 27.5887 30.2388 27.552L34.6354 24.8722C34.7571 24.7979 34.9034 24.775 35.042 24.8086C35.1806 24.8421 35.3002 24.9294 35.3745 25.0511C35.4487 25.1728 35.4716 25.3191 35.4381 25.4577C35.4045 25.5963 35.3173 25.7159 35.1956 25.7902L30.799 28.4699Z" fill="#231F20"/>
<path fill-rule="evenodd" clip-rule="evenodd" d="M22.8982 28.6584C22.9923 28.3579 23.0112 28.0388 22.9531 27.7293C22.895 27.4198 22.7618 27.1293 22.5652 26.8833C21.6341 25.884 16.8327 25.5509 16.2377 27.7828C16.1179 28.2183 16.1142 28.6775 16.227 29.1148C16.3398 29.5521 16.5652 29.9523 16.8807 30.2754C17.9503 31.5937 19.275 31.837 21.0036 30.8956C21.4632 30.683 21.8709 30.3727 22.1981 29.9863C22.5253 29.5999 22.7642 29.1467 22.8982 28.6584Z" fill="#A5C3D2"/>
<path fill-rule="evenodd" clip-rule="evenodd" d="M22.3718 28.553C22.4343 28.2837 22.4453 28.0049 22.4042 27.7315C22.3749 27.5517 22.294 27.3844 22.1713 27.2497C21.9189 27.0486 21.6213 26.9121 21.3042 26.8518C20.5495 26.6628 19.7679 26.6051 18.9936 26.6811C18.3073 26.707 17.646 26.9456 17.1012 27.3638C16.936 27.5125 16.8168 27.7054 16.7577 27.9197C16.6554 28.2611 16.6504 28.6243 16.7435 28.9684C16.8621 29.3246 17.0505 29.6537 17.2976 29.9363C17.6522 30.4334 18.1813 30.7783 18.7791 30.9021C19.4697 30.9638 20.1613 30.7956 20.7466 30.4239C21.1722 30.201 21.5533 29.902 21.8712 29.5418C22.1193 29.2601 22.2918 28.9198 22.3718 28.553ZM23.4615 27.5377C23.5356 28.0164 23.5052 28.5055 23.3725 28.9714C23.2398 29.4373 23.0078 29.8689 22.6926 30.2367C22.2885 30.6981 21.8031 31.0813 21.2605 31.3673C20.4687 31.8565 19.5359 32.0664 18.6109 31.9635C17.7497 31.803 16.982 31.3207 16.4638 30.6145C16.1247 30.2208 15.869 29.7625 15.712 29.2673C15.5622 28.7369 15.5642 28.1752 15.7177 27.6459C15.828 27.2345 16.0538 26.8633 16.3686 26.5763C17.0848 25.9954 17.9673 25.6574 18.8883 25.6115C19.7898 25.5232 20.6996 25.5909 21.5781 25.8115C22.0928 25.92 22.5693 26.1634 22.9589 26.5168C23.2219 26.8012 23.3965 27.1559 23.4615 27.5377Z" fill="#231F20"/>
<path fill-rule="evenodd" clip-rule="evenodd" d="M25.1021 28.6584C25.0079 28.3579 24.9891 28.0388 25.0471 27.7293C25.1052 27.4198 25.2384 27.1293 25.435 26.8833C26.3661 25.884 31.1675 25.5509 31.7625 27.7828C31.8823 28.2183 31.886 28.6775 31.7732 29.1148C31.6604 29.5521 31.435 29.9523 31.1195 30.2754C30.05 31.5937 28.7252 31.837 26.9966 30.8956C26.537 30.683 26.1294 30.3727 25.8021 29.9863C25.4749 29.5999 25.236 29.1467 25.1021 28.6584Z" fill="#A5C3D2"/>
<path fill-rule="evenodd" clip-rule="evenodd" d="M24.5755 28.7636C24.4853 28.3611 24.4728 27.945 24.5387 27.5377C24.6036 27.1559 24.7781 26.8012 25.0411 26.5169C25.4307 26.1635 25.9072 25.9201 26.4219 25.8115C27.3004 25.591 28.2103 25.5233 29.1117 25.6116C30.0327 25.6576 30.9153 25.9955 31.6315 26.5764C31.9463 26.8633 32.1723 27.2345 32.2827 27.6459C32.4363 28.1752 32.4382 28.737 32.2881 29.2672C32.1311 29.7625 31.8754 30.2208 31.5363 30.6144C31.0181 31.3207 30.2504 31.8031 29.3892 31.9635C28.4642 32.0664 27.5313 31.8565 26.7396 31.3673C26.197 31.0813 25.7116 30.6981 25.3076 30.2367C24.9419 29.8162 24.6899 29.3091 24.5755 28.7636ZM25.5957 27.7315C25.5494 28.0538 25.5731 28.3823 25.665 28.6947C25.757 29.007 25.9151 29.296 26.1287 29.5418C26.4466 29.902 26.8278 30.201 27.2535 30.4239C27.8388 30.7956 28.5304 30.9637 29.221 30.9021C29.8188 30.7783 30.3479 30.4334 30.7024 29.9363C30.9496 29.6537 31.138 29.3246 31.2565 28.9683C31.3498 28.6243 31.3448 28.2611 31.2423 27.9197C31.1832 27.7054 31.064 27.5125 30.8988 27.3638C30.354 26.9456 29.6927 26.707 29.0064 26.6811C28.2321 26.6051 27.4505 26.6628 26.6958 26.8518C26.3787 26.9121 26.0811 27.0486 25.8287 27.2497C25.706 27.3843 25.6251 27.5517 25.5957 27.7315Z" fill="#231F20"/>
<path fill-rule="evenodd" clip-rule="evenodd" d="M20.0952 26.6512C19.9522 26.6512 19.8151 26.5944 19.714 26.4933C19.6129 26.3923 19.5562 26.2551 19.5562 26.1122C19.5562 25.9692 19.6129 25.8321 19.714 25.731C19.8151 25.6299 19.9522 25.5732 20.0952 25.5732H28.0396C28.1826 25.5732 28.3197 25.6299 28.4208 25.731C28.5219 25.8321 28.5787 25.9692 28.5787 26.1122C28.5787 26.2551 28.5219 26.3923 28.4208 26.4933C28.3197 26.5944 28.1826 26.6512 28.0396 26.6512H20.0952Z" fill="#231F20"/>
<path fill-rule="evenodd" clip-rule="evenodd" d="M31.1137 8.23682C33.1419 9.08132 34.9624 11.1197 34.0245 14.6176C31.7785 22.9942 13.7871 20.9094 14.0667 15.3942C14.1809 13.1418 16.6357 10.273 23.0963 11.5588C26.6605 12.2684 31.6393 13.7259 31.1137 8.23682Z" fill="#231F20"/>
<path fill-rule="evenodd" clip-rule="evenodd" d="M31.3202 7.73995C32.6458 8.25922 33.7252 9.26177 34.3409 10.5455C34.906 11.8806 34.9783 13.3732 34.5447 14.7567C33.6545 18.0774 30.5232 19.8626 26.9377 20.4959C25.1128 20.8054 23.2526 20.8492 21.4151 20.6258C19.7378 20.4488 18.1012 19.9966 16.571 19.2873C14.6645 18.3508 13.4469 17.0054 13.5299 15.369C13.5394 15.1762 13.5629 14.9844 13.6003 14.795C13.7304 14.1927 13.9794 13.6224 14.3327 13.1175C14.686 12.6126 15.1364 12.1833 15.6578 11.8548C16.8133 11.0899 18.486 10.6032 20.7764 10.7194C21.5906 10.764 22.4004 10.8679 23.1995 11.0303L23.2015 11.0308C23.3269 11.0557 23.6577 11.1241 24.001 11.1956C25.4688 11.5013 27.0819 11.837 28.3481 11.716C29.7956 11.5774 30.8148 10.7519 30.5788 8.28745C30.5701 8.19518 30.5853 8.10221 30.6232 8.01759C30.661 7.93297 30.7201 7.85958 30.7947 7.80455C30.8692 7.74953 30.9568 7.71474 31.0488 7.70358C31.1408 7.69242 31.2342 7.70527 31.3197 7.74087L31.3202 7.73995ZM33.3639 10.9919C33.0013 10.222 32.419 9.57647 31.6904 9.13664C31.6564 11.6963 30.2957 12.6088 28.4495 12.7856C27.0191 12.9225 25.3244 12.5695 23.7821 12.2483C23.5844 12.2073 23.3824 12.1652 22.9911 12.0873C22.2441 11.9345 21.4871 11.836 20.7259 11.7932C18.6891 11.69 17.2332 12.1018 16.2513 12.7516C15.8494 13.0018 15.5014 13.3296 15.2277 13.7159C14.954 14.1022 14.7601 14.5392 14.6574 15.0013C14.6294 15.1392 14.6115 15.2789 14.6037 15.4194C14.5454 16.5704 15.521 17.5752 17.0429 18.3228C18.4646 18.9778 19.9844 19.3945 21.5413 19.5562C23.2752 19.7672 25.0304 19.7263 26.7525 19.4345C29.9569 18.8685 32.7423 17.3215 33.5044 14.4786C33.8712 13.3363 33.8214 12.101 33.3639 10.9919Z" fill="#231F20"/>
<path fill-rule="evenodd" clip-rule="evenodd" d="M17.757 17.9467C17.6243 17.9007 17.5148 17.8049 17.4517 17.6795C17.3887 17.5541 17.377 17.409 17.4193 17.2751C17.4615 17.1412 17.5543 17.0291 17.6779 16.9626C17.8015 16.8961 17.9462 16.8804 18.0812 16.9189C19.6792 17.4235 23.3782 18.1905 26.5605 17.5512C28.4835 17.1649 30.2125 16.2575 31.1233 14.4436C31.1547 14.3802 31.1982 14.3236 31.2514 14.2771C31.3047 14.2306 31.3666 14.195 31.4336 14.1725C31.5007 14.15 31.5715 14.1409 31.642 14.1458C31.7126 14.1508 31.7814 14.1696 31.8447 14.2012C31.9079 14.2328 31.9643 14.2766 32.0105 14.3301C32.0568 14.3836 32.0921 14.4457 32.1142 14.5128C32.1364 14.58 32.1452 14.6508 32.1399 14.7213C32.1346 14.7918 32.1155 14.8606 32.0835 14.9237C30.9972 17.0872 28.99 18.1583 26.7711 18.604C23.3649 19.2882 19.4455 18.4798 17.757 17.9467Z" fill="#58595B"/>
<path fill-rule="evenodd" clip-rule="evenodd" d="M19.1765 15.5464C19.1097 15.5213 19.0485 15.4832 18.9965 15.4343C18.9446 15.3853 18.9029 15.3265 18.874 15.2613C18.845 15.196 18.8294 15.1257 18.828 15.0543C18.8266 14.9829 18.8394 14.912 18.8657 14.8457C18.892 14.7793 18.9313 14.7189 18.9813 14.6679C19.0312 14.6169 19.0908 14.5764 19.1566 14.5487C19.2224 14.5211 19.2931 14.5068 19.3645 14.5068C19.4358 14.5067 19.5065 14.5209 19.5723 14.5485C21.0236 15.0056 22.5423 15.2114 24.0629 15.1572C25.1315 15.1866 26.1852 14.9015 27.0931 14.3371C27.1492 14.2934 27.2134 14.2613 27.2819 14.2426C27.3505 14.2239 27.4221 14.219 27.4926 14.2281C27.563 14.2372 27.631 14.2602 27.6925 14.2958C27.7541 14.3313 27.808 14.3787 27.8511 14.4352C27.8942 14.4916 27.9257 14.5561 27.9438 14.6248C27.9618 14.6936 27.9661 14.7652 27.9563 14.8356C27.9465 14.906 27.9229 14.9737 27.8868 15.0349C27.8507 15.0961 27.8028 15.1496 27.7459 15.1922C26.662 15.8949 25.3923 16.2568 24.1008 16.231C22.4323 16.2857 20.7668 16.0541 19.1765 15.5464Z" fill="#58595B"/>
</g>
<defs>
<clipPath id="clip0_43_9">
<rect width="48" height="48" fill="white"/>
</clipPath>
</defs>
</svg>
