<svg width="24" height="24" viewBox="0 0 24 24" fill="none" xmlns="http://www.w3.org/2000/svg">
<path d="M15.9071 16.7444H8.09329C7.63092 16.7444 7.2561 16.3695 7.2561 15.9072V8.09329C7.2561 7.63092 7.63096 7.2561 8.09329 7.2561H15.9071C16.3695 7.2561 16.7443 7.63096 16.7443 8.09329V15.9071C16.7443 16.3695 16.3694 16.7444 15.9071 16.7444Z" fill="#E65C7B"/>
<path d="M0.000488281 9.46655V0.837187C0.000488281 0.374859 0.375348 0 0.837676 0H9.46694C10.2099 0 10.586 0.902109 10.0589 1.42917L1.42966 10.0585C0.906488 10.5817 0.000488281 10.2166 0.000488281 9.46655Z" fill="#0778B8"/>
<path d="M9.4665 23.9996H0.837188C0.374813 23.9996 0 23.6248 0 23.1624V14.5331C0 13.7873 0.904266 13.4161 1.42917 13.9412L10.0585 22.5704C10.5838 23.0958 10.212 23.9996 9.4665 23.9996Z" fill="#0778B8"/>
<path d="M15.9071 7.2561H12V16.7444H15.9071C16.3695 16.7444 16.7443 16.3695 16.7443 15.9072V8.09329C16.7443 7.63092 16.3694 7.2561 15.9071 7.2561Z" fill="#834496"/>
<path d="M22.5708 10.0589L13.9414 1.42954C13.4161 0.90421 13.788 0.000366211 14.5334 0.000366211H23.1627C23.6251 0.000366211 23.9999 0.375226 23.9999 0.837554V9.46687C24 10.2139 23.0947 10.5827 22.5708 10.0589Z" fill="#224F9C"/>
<path d="M23.1624 24H14.5332C13.7902 24 13.4141 23.0979 13.9412 22.5708L22.5705 13.9415C23.0959 13.4163 23.9997 13.7881 23.9997 14.5334V23.1628C23.9996 23.6251 23.6248 24 23.1624 24Z" fill="#224F9C"/>
</svg>
