<svg width="16" height="9" viewBox="0 0 16 9" fill="none" xmlns="http://www.w3.org/2000/svg">
<path d="M14.8318 0.534148L8.03596 7.27191L1.29868 0.476069C1.1122 0.287669 0.808121 0.286709 0.619961 0.473189C0.431801 0.659669 0.430602 0.963749 0.617082 1.15167L7.62364 8.21919C7.71124 8.30751 7.82404 8.35431 7.93852 8.36055C7.97188 8.36247 8.00524 8.36031 8.03812 8.35551C8.05108 8.35743 8.06356 8.36055 8.07652 8.36079C8.20708 8.36775 8.34028 8.32191 8.44012 8.22255L15.5074 1.21551C15.6958 1.02903 15.697 0.725189 15.5103 0.536789C15.3236 0.348389 15.0197 0.347428 14.8318 0.534148Z" fill="black"/>
</svg>
