<svg width="24" height="24" viewBox="0 0 24 24" fill="none" xmlns="http://www.w3.org/2000/svg">
<g clip-path="url(#clip0_20_56)">
<path d="M11.4375 20.6719H7.125V16.4531H8.8125V17.7656H9.75V16.4531H11.4375V20.6719ZM17.0625 20.6719H12.75V16.4531H14.4375V17.7656H15.375V16.4531H17.0625V20.6719ZM14.25 15.1406H9.9375V10.9219H11.625V12.2344H12.5625V10.9219H14.25V15.1406ZM0.1875 6.60938C0.1875 7.89169 1.08984 8.98144 2.25 9.38212V21.9844H0.1875V23.6719H23.8125V21.9844H21.75V9.38006C22.9584 9.01022 23.7843 7.93669 23.8125 6.60938V5.85938H0.1875V6.60938ZM6.12094 6.54806C6.12094 7.15528 6.75422 9.49837 9.09534 9.49837C11.1287 9.49837 12.0205 7.65947 12.0205 6.54806C12.0205 7.58419 12.7152 9.49622 14.9703 9.49622C17.0077 9.49622 17.9106 7.52756 17.9106 6.54806C17.9106 7.90041 18.8224 9.02456 20.0625 9.375V21.9844H3.9375V9.38381C5.19394 9.04369 6.12094 7.91203 6.12094 6.54806ZM20.8905 2.20312H20.9062V0.328125H3.1875V2.20312L0.1875 5.20312H23.8125L20.8905 2.20312Z" fill="#DABEFF"/>
</g>
<defs>
<clipPath id="clip0_20_56">
<rect width="24" height="24" fill="white"/>
</clipPath>
</defs>
</svg>
