<svg width="32" height="32" viewBox="0 0 32 32" fill="none" xmlns="http://www.w3.org/2000/svg">
<g clip-path="url(#clip0_43_47)">
<path d="M10.312 27.692C8.29168 28.6746 6.05382 29.1249 3.81067 29C3.43067 29 3.03201 28.992 2.62801 28.976C2.44419 28.9704 2.2656 28.9135 2.11243 28.8117C1.95927 28.7099 1.83766 28.5673 1.76134 28.4C1.68188 28.2344 1.65039 28.0498 1.67042 27.8671C1.69045 27.6845 1.7612 27.5112 1.87467 27.3667C3.1145 25.8788 4.05284 24.1638 4.63734 22.3173C3.25074 19.8239 2.72284 16.9435 3.13502 14.1204C3.54721 11.2972 4.8766 8.68802 6.91823 6.69507C8.95986 4.70213 11.6004 3.43609 14.4326 3.09215C17.2649 2.74821 20.1317 3.34546 22.591 4.79183C25.0503 6.2382 26.9655 8.45337 28.0414 11.0958C29.1173 13.7383 29.2942 16.6612 28.5447 19.4141C27.7952 22.167 26.1609 24.5969 23.8939 26.3292C21.627 28.0615 18.8531 29 16 29C14.0289 29.0049 12.083 28.5574 10.312 27.692ZM10.7427 25.6667C13.0817 26.9391 15.8031 27.3195 18.4014 26.7373C20.9997 26.1551 23.2985 24.6498 24.871 22.501C26.4435 20.3521 27.1828 17.7056 26.9517 15.0529C26.7205 12.4002 25.5347 9.92148 23.6143 8.07694C21.6939 6.2324 19.1694 5.14737 16.5095 5.02329C13.8497 4.89921 11.2351 5.74453 9.15136 7.40228C7.06758 9.06004 5.65614 11.4176 5.17907 14.0373C4.70201 16.657 5.19174 19.3607 6.55734 21.6467C6.68587 21.8608 6.72962 22.1152 6.68001 22.36C6.2829 24.0192 5.57681 25.5888 4.59867 26.9867C6.37897 27.046 8.14066 26.6088 9.68667 25.724C9.85483 25.6055 10.0556 25.5421 10.2613 25.5427C10.4296 25.5432 10.5951 25.5858 10.7427 25.6667ZM10.6667 19.6667C10.4015 19.6667 10.1471 19.5613 9.95957 19.3738C9.77203 19.1862 9.66667 18.9319 9.66667 18.6667C9.66667 18.4014 9.77203 18.1471 9.95957 17.9596C10.1471 17.772 10.4015 17.6667 10.6667 17.6667H20C20.2652 17.6667 20.5196 17.772 20.7071 17.9596C20.8947 18.1471 21 18.4014 21 18.6667C21 18.9319 20.8947 19.1862 20.7071 19.3738C20.5196 19.5613 20.2652 19.6667 20 19.6667H10.6667ZM10.6667 14.3333C10.4015 14.3333 10.1471 14.228 9.95957 14.0404C9.77203 13.8529 9.66667 13.5985 9.66667 13.3333C9.66667 13.0681 9.77203 12.8138 9.95957 12.6262C10.1471 12.4387 10.4015 12.3333 10.6667 12.3333H17.3333C17.5986 12.3333 17.8529 12.4387 18.0404 12.6262C18.228 12.8138 18.3333 13.0681 18.3333 13.3333C18.3333 13.5985 18.228 13.8529 18.0404 14.0404C17.8529 14.228 17.5986 14.3333 17.3333 14.3333H10.6667Z" fill="#180630"/>
</g>
<defs>
<clipPath id="clip0_43_47">
<rect width="32" height="32" fill="white"/>
</clipPath>
</defs>
</svg>
