<svg width="32" height="32" viewBox="0 0 32 32" fill="none" xmlns="http://www.w3.org/2000/svg">
<g clip-path="url(#clip0_43_50)">
<path fill-rule="evenodd" clip-rule="evenodd" d="M19.7654 26.3529C19.7654 28.4292 18.077 30.1177 16.0007 30.1177C13.9245 30.1177 12.236 28.4292 12.236 26.3529H19.7654ZM16.0007 3.7647C21.708 3.7647 26.3537 8.40847 26.3537 14.1177V20.7059C26.3537 22.1515 26.8996 23.4711 27.7937 24.4706H4.20592C5.10192 23.4711 5.6478 22.1515 5.6478 20.7059V14.1177C5.6478 8.40848 10.2916 3.7647 16.0007 3.7647ZM28.236 20.7059V14.1177C28.236 7.68943 23.2478 2.4132 16.9419 1.92943V0H15.0596V1.92942C8.7518 2.41318 3.76545 7.68942 3.76545 14.1177V20.7059C3.76545 22.7821 2.07697 24.4706 0.000732422 24.4706V26.3529H10.3537C10.3537 29.4664 12.8854 32 16.0007 32C19.1141 32 21.6478 29.4664 21.6478 26.3529H32.0007V24.4706C29.9245 24.4706 28.236 22.7821 28.236 20.7059Z" fill="#180630"/>
</g>
<defs>
<clipPath id="clip0_43_50">
<rect width="32" height="32" fill="white"/>
</clipPath>
</defs>
</svg>
