<svg width="19" height="22" viewBox="0 0 19 22" fill="none" xmlns="http://www.w3.org/2000/svg">
<g id="Layer 7">
<path id="Vector" d="M17.5 8H15.5V5.5C15.5 4.04131 14.9205 2.64236 13.8891 1.61091C12.8576 0.579463 11.4587 0 10 0H9C7.54131 0 6.14236 0.579463 5.11091 1.61091C4.07946 2.64236 3.5 4.04131 3.5 5.5V8H1.5C1.23478 8 0.98043 8.10536 0.792893 8.29289C0.605357 8.48043 0.5 8.73478 0.5 9V21C0.5 21.2652 0.605357 21.5196 0.792893 21.7071C0.98043 21.8946 1.23478 22 1.5 22H17.5C17.7652 22 18.0196 21.8946 18.2071 21.7071C18.3946 21.5196 18.5 21.2652 18.5 21V9C18.5 8.73478 18.3946 8.48043 18.2071 8.29289C18.0196 8.10536 17.7652 8 17.5 8ZM5.5 5.5C5.5 4.57174 5.86875 3.6815 6.52513 3.02513C7.1815 2.36875 8.07174 2 9 2H10C10.9283 2 11.8185 2.36875 12.4749 3.02513C13.1313 3.6815 13.5 4.57174 13.5 5.5V8H5.5V5.5ZM5 16.5C4.70333 16.5 4.41332 16.412 4.16664 16.2472C3.91997 16.0824 3.72771 15.8481 3.61418 15.574C3.50065 15.2999 3.47094 14.9983 3.52882 14.7074C3.5867 14.4164 3.72956 14.1491 3.93934 13.9393C4.14912 13.7296 4.41639 13.5867 4.70736 13.5288C4.99834 13.4709 5.29994 13.5006 5.57403 13.6142C5.84811 13.7277 6.08238 13.92 6.2472 14.1666C6.41203 14.4133 6.5 14.7033 6.5 15C6.50698 15.1989 6.47296 15.397 6.40005 15.5822C6.32714 15.7673 6.2169 15.9355 6.0762 16.0762C5.93549 16.2169 5.76733 16.3271 5.58219 16.4001C5.39704 16.473 5.19886 16.507 5 16.5ZM9.5 16.5C9.20333 16.5 8.91332 16.412 8.66665 16.2472C8.41997 16.0824 8.22771 15.8481 8.11418 15.574C8.00065 15.2999 7.97094 14.9983 8.02882 14.7074C8.0867 14.4164 8.22956 14.1491 8.43934 13.9393C8.64912 13.7296 8.91639 13.5867 9.20736 13.5288C9.49834 13.4709 9.79994 13.5006 10.074 13.6142C10.3481 13.7277 10.5824 13.92 10.7472 14.1666C10.912 14.4133 11 14.7033 11 15C11.007 15.1989 10.973 15.397 10.9001 15.5822C10.8271 15.7673 10.7169 15.9355 10.5762 16.0762C10.4355 16.2169 10.2673 16.3271 10.0822 16.4001C9.89704 16.473 9.69886 16.507 9.5 16.5ZM14 16.5C13.7033 16.5 13.4133 16.412 13.1666 16.2472C12.92 16.0824 12.7277 15.8481 12.6142 15.574C12.5006 15.2999 12.4709 14.9983 12.5288 14.7074C12.5867 14.4164 12.7296 14.1491 12.9393 13.9393C13.1491 13.7296 13.4164 13.5867 13.7074 13.5288C13.9983 13.4709 14.2999 13.5006 14.574 13.6142C14.8481 13.7277 15.0824 13.92 15.2472 14.1666C15.412 14.4133 15.5 14.7033 15.5 15C15.507 15.1989 15.473 15.397 15.4001 15.5822C15.3271 15.7673 15.2169 15.9355 15.0762 16.0762C14.9355 16.2169 14.7673 16.3271 14.5822 16.4001C14.397 16.473 14.1989 16.507 14 16.5Z" fill="#180630"/>
</g>
</svg>
