<svg width="32" height="32" viewBox="0 0 32 32" fill="none" xmlns="http://www.w3.org/2000/svg">
<g clip-path="url(#clip0_135_472)">
<path d="M30.5 17.75H20.5V11.75H26.5L30.5 17.75Z" fill="#ED6D64"/>
<path d="M30.9999 17.75H20.5V22.25H30.9999V17.75Z" fill="#FBB03B"/>
<path d="M30.5 17.75H25V11.75H26.5L30.5 17.75Z" fill="#E9483D"/>
<path d="M26.5 11.75H23.5V15.75H29.5L26.5 11.75Z" fill="white"/>
<path d="M31 17.75H25V22.25H31V17.75Z" fill="#F7931E"/>
<path d="M18.9999 22.7499H0.5V7.74997H15.8843C17.605 7.74997 18.9999 9.14491 18.9999 10.8656V22.7499Z" fill="#ED6D64"/>
<path d="M26.25 25.7499C27.4926 25.7499 28.5 24.7426 28.5 23.4999C28.5 22.2573 27.4926 21.25 26.25 21.25C25.0073 21.25 24 22.2573 24 23.4999C24 24.7426 25.0073 25.7499 26.25 25.7499Z" fill="#E9483D"/>
<path d="M26.25 25.7499C25.0074 25.7499 24 24.7426 24 23.4999C24 22.2573 25.0074 21.25 26.25 21.25" fill="#ED6D64"/>
<path d="M31.5 20.75H28.5V22.75H31.5V20.75Z" fill="#E9483D"/>
<path d="M18.9999 7.74997H5.5V22.7499H18.9999V7.74997Z" fill="#E9483D"/>
<path d="M19 16.7632H0.00012207V22.7499H19V16.7632Z" fill="#FBB03B"/>
<path d="M2.00004 7.75004H1V22.75H2.00004V7.75004Z" fill="white"/>
<path d="M19 22.7499H6.1058C5.77125 22.7499 5.5 22.4787 5.5 22.1441V16.7632H19V22.7499Z" fill="#F7931E"/>
<path d="M9.99999 25.7499C11.6568 25.7499 13 24.4068 13 22.7499C13 21.0931 11.6568 19.7499 9.99999 19.7499C8.34314 19.7499 7 21.0931 7 22.7499C7 24.4068 8.34314 25.7499 9.99999 25.7499Z" fill="#E9483D"/>
<path d="M9.99999 25.7499C8.34314 25.7499 7 24.4068 7 22.7499C7 21.0931 8.34314 19.7499 9.99999 19.7499" fill="#ED6D64"/>
<path d="M10 24.25C10.8285 24.25 11.5001 23.5784 11.5001 22.7499C11.5001 21.9215 10.8285 21.2499 10 21.2499C9.17159 21.2499 8.5 21.9215 8.5 22.7499C8.5 23.5784 9.17159 24.25 10 24.25Z" fill="#F7931E"/>
<path d="M10 24.25C9.17157 24.25 8.5 23.5784 8.5 22.75C8.5 21.9215 9.17157 21.25 10 21.25" fill="#FBB03B"/>
<path d="M10 24.7499C8.89723 24.7499 8 23.8528 8 22.75C8 21.6472 8.89723 20.75 10 20.75C11.1028 20.75 12 21.6472 12 22.75C12 23.8528 11.1028 24.7499 10 24.7499ZM10 21.75C9.44863 21.75 9.00004 22.1985 9.00004 22.7499C9.00004 23.3013 9.44863 23.75 10 23.75C10.5514 23.75 11 23.3014 11 22.7499C11 22.1985 10.5514 21.75 10 21.75Z" fill="#1D1D1B"/>
<path d="M26.25 24.25C26.6642 24.25 27 23.9142 27 23.4999C27 23.0857 26.6642 22.7499 26.25 22.7499C25.8358 22.7499 25.5 23.0857 25.5 23.4999C25.5 23.9142 25.8358 24.25 26.25 24.25Z" fill="#F7931E"/>
<path d="M26.25 24.7499C25.5607 24.7499 25 24.1892 25 23.4999C25 22.8107 25.5608 22.2499 26.25 22.2499C26.9392 22.2499 27.5 22.8107 27.5 23.4999C27.5 24.1892 26.9392 24.7499 26.25 24.7499ZM26.25 23.2499C26.1121 23.2499 26 23.3621 26 23.4999C26 23.6378 26.1122 23.75 26.25 23.75C26.3879 23.75 26.5 23.6378 26.5 23.4999C26.5 23.3621 26.3878 23.2499 26.25 23.2499Z" fill="#1D1D1B"/>
<path d="M24.5 17.25H23V18.25H24.5V17.25Z" fill="#1D1D1B"/>
<path d="M25 9.74999H19.5V7.25005H0V23.25H6.53629C6.77972 24.9438 8.2399 26.25 10 26.25C11.7601 26.25 13.2203 24.9438 13.4637 23.25H19.5V10.75H25V9.74999ZM10 25.2499C8.62154 25.2499 7.50008 24.1284 7.50008 22.7499C7.50008 21.3715 8.62154 20.2499 10 20.2499C11.3785 20.2499 12.5 21.3715 12.5 22.7499C12.5 24.1285 11.3785 25.2499 10 25.2499ZM18.4999 22.2499H13.4637C13.2203 20.5561 11.7601 19.25 10 19.25C8.2399 19.25 6.77972 20.5561 6.53629 22.2499H1.00004V17.2499H18.4999V22.2499ZM18.4999 16.25H1.00004V8.25003H18.4999V9.74999H15.5V10.75H18.4999V16.25Z" fill="#1D1D1B"/>
<path d="M32 20.25H27.9999V21.3802C27.5241 20.9867 26.9142 20.75 26.2499 20.75C25.1835 20.75 24.2577 21.3605 23.8017 22.2499H20.9999V18.25H21.9999V17.25H20.9999V12.25H22.9999V16.25H29.0657L29.7324 17.25H25.4999V18.25H30.399L30.4999 18.4014V20.25H31.4999V18.0986L29.416 14.9726L26.7572 11.2501H20V23.25H23.5119C23.5044 23.3324 23.5 23.4157 23.5 23.5C23.5 25.0164 24.7337 26.25 26.25 26.25C27.7664 26.25 29 25.0164 29 23.5C29 23.4157 28.9956 23.3324 28.9882 23.25H32V20.25H32ZM28.3856 15.25H24V12.25H26.2427L28.3856 15.25ZM26.25 25.2499C25.285 25.2499 24.5 24.4649 24.5 23.4999C24.5 22.535 25.285 21.75 26.25 21.75C27.215 21.75 28 22.535 28 23.4999C27.9999 24.4649 27.2149 25.2499 26.25 25.2499ZM30.9999 22.2499H29V21.25H30.9999V22.2499Z" fill="#1D1D1B"/>
<path d="M5.49996 23.75H1V24.7499H5.49996V23.75Z" fill="#1D1D1B"/>
<path d="M6.50002 25.2499H4.5V26.2499H6.50002V25.2499Z" fill="#1D1D1B"/>
<path d="M23 24.25H16.5V25.2499H23V24.25Z" fill="#1D1D1B"/>
<path d="M16.5 11.75H14V12.75H16.5V11.75Z" fill="#1D1D1B"/>
<path d="M14.5 9.74999H12.5V10.75H14.5V9.74999Z" fill="#1D1D1B"/>
<path d="M6.99998 11.25H3.5V12.25H6.99998V11.25Z" fill="#1D1D1B"/>
<path d="M8.99994 12.75H6.5V13.75H8.99994V12.75Z" fill="#1D1D1B"/>
<path d="M7.49998 14.25H1.5V15.25H7.49998V14.25Z" fill="#1D1D1B"/>
<path d="M22 12.25H21V17.2499H22V12.25Z" fill="white"/>
<path d="M22 18.25H21V22.2499H22V18.25Z" fill="white"/>
<path d="M9 5.75002H1V6.75H9V5.75002Z" fill="#1D1D1B"/>
</g>
<defs>
<clipPath id="clip0_135_472">
<rect width="32" height="32" fill="white"/>
</clipPath>
</defs>
</svg>
