<svg width="54" height="54" viewBox="0 0 54 54" fill="none" xmlns="http://www.w3.org/2000/svg">
<rect width="54" height="54" rx="27" fill="#F7F7F7"/>
<g clip-path="url(#clip0_135_359)">
<path d="M27 51C40.2548 51 51 40.2548 51 27C51 13.7452 40.2548 3 27 3C13.7452 3 3 13.7452 3 27C3 40.2548 13.7452 51 27 51Z" fill="#F5EEE5"/>
<mask id="mask0_135_359" style="mask-type:luminance" maskUnits="userSpaceOnUse" x="3" y="3" width="48" height="48">
<path d="M27 51C40.2548 51 51 40.2548 51 27C51 13.7452 40.2548 3 27 3C13.7452 3 3 13.7452 3 27C3 40.2548 13.7452 51 27 51Z" fill="white"/>
</mask>
<g mask="url(#mask0_135_359)">
<path d="M29.4 22.68H14.52V43.32H29.4V22.68Z" fill="#452228"/>
</g>
<mask id="mask1_135_359" style="mask-type:luminance" maskUnits="userSpaceOnUse" x="3" y="3" width="48" height="48">
<path d="M27 51C40.2548 51 51 40.2548 51 27C51 13.7452 40.2548 3 27 3C13.7452 3 3 13.7452 3 27C3 40.2548 13.7452 51 27 51Z" fill="white"/>
</mask>
<g mask="url(#mask1_135_359)">
<path d="M39.48 20.76H24.6V43.32H39.48V20.76Z" fill="#452228"/>
</g>
<mask id="mask2_135_359" style="mask-type:luminance" maskUnits="userSpaceOnUse" x="3" y="3" width="48" height="48">
<path d="M27 51C40.2548 51 51 40.2548 51 27C51 13.7452 40.2548 3 27 3C13.7452 3 3 13.7452 3 27C3 40.2548 13.7452 51 27 51Z" fill="white"/>
</mask>
<g mask="url(#mask2_135_359)">
<path d="M33.24 37.512C33.24 39.432 35.496 40.008 36.648 40.296C40.296 41.256 47.592 43.128 47.592 43.128C49.128 43.656 50.328 44.808 51 46.296V51H3V46.296C3.624 44.808 4.872 43.656 6.408 43.128C6.408 43.128 13.704 41.256 17.352 40.296C18.504 40.008 20.76 39.432 20.76 37.512C20.76 35.592 20.76 32.28 20.76 32.28H33.24C33.24 32.28 33.24 35.592 33.24 37.512Z" fill="#E6C19C"/>
</g>
<mask id="mask3_135_359" style="mask-type:luminance" maskUnits="userSpaceOnUse" x="3" y="3" width="48" height="48">
<path d="M27 51C40.2548 51 51 40.2548 51 27C51 13.7452 40.2548 3 27 3C13.7452 3 3 13.7452 3 27C3 40.2548 13.7452 51 27 51Z" fill="white"/>
</mask>
<g mask="url(#mask3_135_359)">
<mask id="mask4_135_359" style="mask-type:luminance" maskUnits="userSpaceOnUse" x="3" y="32" width="48" height="19">
<path d="M33.24 37.512C33.24 39.432 35.496 40.008 36.648 40.296C40.296 41.256 47.592 43.128 47.592 43.128C49.128 43.656 50.328 44.808 51 46.296V51H3V46.296C3.624 44.808 4.872 43.656 6.408 43.128C6.408 43.128 13.704 41.256 17.352 40.296C18.504 40.008 20.76 39.432 20.76 37.512C20.76 35.592 20.76 32.28 20.76 32.28H33.24C33.24 32.28 33.24 35.592 33.24 37.512Z" fill="white"/>
</mask>
<g mask="url(#mask4_135_359)">
<path d="M27.096 8.28H27.192C28.776 8.28 31.128 8.376 32.664 9.24C34.248 10.152 36.168 11.928 36.744 15.048C37.896 21.624 35.736 32.04 33.72 35.4C31.8 38.616 29.016 39.816 27.24 39.912H27.192H27.096H27H26.952C25.176 39.816 22.392 38.616 20.472 35.4C18.456 32.04 16.296 21.624 17.448 15.048C18.024 11.928 19.944 10.152 21.528 9.24C23.064 8.376 25.416 8.28 27 8.28H27.096Z" fill="#D4B08C"/>
</g>
<mask id="mask5_135_359" style="mask-type:luminance" maskUnits="userSpaceOnUse" x="3" y="32" width="48" height="19">
<path d="M33.24 37.512C33.24 39.432 35.496 40.008 36.648 40.296C40.296 41.256 47.592 43.128 47.592 43.128C49.128 43.656 50.328 44.808 51 46.296V51H3V46.296C3.624 44.808 4.872 43.656 6.408 43.128C6.408 43.128 13.704 41.256 17.352 40.296C18.504 40.008 20.76 39.432 20.76 37.512C20.76 35.592 20.76 32.28 20.76 32.28H33.24C33.24 32.28 33.24 35.592 33.24 37.512Z" fill="white"/>
</mask>
<g mask="url(#mask5_135_359)">
<path d="M3 30.84H51V51H3V30.84ZM27 47.16C33.48 47.064 37.08 39.96 37.08 39.96C37.08 39.96 32.28 31.8 27 31.8C21.72 31.8 16.92 39.96 16.92 39.96C16.92 39.96 20.52 47.256 27 47.16Z" fill="#D94CAA"/>
</g>
<mask id="mask6_135_359" style="mask-type:luminance" maskUnits="userSpaceOnUse" x="3" y="32" width="48" height="19">
<path d="M33.24 37.512C33.24 39.432 35.496 40.008 36.648 40.296C40.296 41.256 47.592 43.128 47.592 43.128C49.128 43.656 50.328 44.808 51 46.296V51H3V46.296C3.624 44.808 4.872 43.656 6.408 43.128C6.408 43.128 13.704 41.256 17.352 40.296C18.504 40.008 20.76 39.432 20.76 37.512C20.76 35.592 20.76 32.28 20.76 32.28H33.24C33.24 32.28 33.24 35.592 33.24 37.512Z" fill="white"/>
</mask>
<g mask="url(#mask6_135_359)">
<path d="M27 29.4C20.712 29.4 15.048 39.096 15.048 39.096C15.048 39.096 19.32 47.736 27 47.64C34.68 47.544 38.952 39.096 38.952 39.096C38.952 39.096 33.288 29.4 27 29.4ZM27 45.72C21.192 45.72 17.016 38.952 17.016 38.952C17.016 38.952 21.72 31.32 27 31.32C32.28 31.32 36.984 38.952 36.984 38.952C36.984 38.952 32.808 45.72 27 45.72Z" fill="#B33E82"/>
</g>
</g>
<path d="M26.904 10.68C36.072 10.68 36.84 17.304 36.888 17.928C37.176 21 36.744 25.272 35.976 28.392C35.352 31.128 34.44 32.856 33.576 34.104C31.656 36.936 28.872 37.992 27.096 38.088C27 38.088 27 38.088 26.952 38.088H26.856C25.032 37.992 22.248 36.936 20.328 34.104C19.512 32.952 18.696 31.8 18.072 29.304C17.256 26.04 16.728 21.144 17.064 17.88C17.16 17.256 17.736 10.68 26.904 10.68Z" fill="#F2CEA5"/>
<path d="M24.984 32.28C24.888 32.28 24.792 32.472 24.84 32.616C25.272 33.624 25.944 34.2 26.856 34.248C27.816 34.344 28.824 33.672 29.352 32.616C29.4 32.472 29.352 32.28 29.208 32.28H24.984Z" fill="#A3705F"/>
<path d="M31.32 25.56C31.8502 25.56 32.28 25.1302 32.28 24.6C32.28 24.0698 31.8502 23.64 31.32 23.64C30.7898 23.64 30.36 24.0698 30.36 24.6C30.36 25.1302 30.7898 25.56 31.32 25.56Z" fill="#262626"/>
<path d="M22.68 25.56C23.2102 25.56 23.64 25.1302 23.64 24.6C23.64 24.0698 23.2102 23.64 22.68 23.64C22.1498 23.64 21.72 24.0698 21.72 24.6C21.72 25.1302 22.1498 25.56 22.68 25.56Z" fill="#262626"/>
<path d="M25.032 23.256C24.312 22.344 23.208 22.152 22.344 22.2C20.904 22.2 20.28 22.68 20.28 22.68L19.656 21.96C19.8 21.864 20.568 21.24 22.392 21.24C23.832 21.24 25.08 21.72 25.848 22.68L25.032 23.256Z" fill="#CC9872"/>
<path d="M28.44 29.592C27.816 28.776 26.808 27 27.336 24.36C27.72 22.392 29.256 21.24 31.464 21.24H31.512C33.336 21.24 34.104 21.864 34.152 21.912L33.624 22.68C33.624 22.68 33 22.2 31.56 22.2C30.552 22.2 28.728 22.488 28.344 24.552C27.864 26.808 28.728 28.296 29.256 29.016L28.44 29.592Z" fill="#BB8660"/>
<path d="M16.824 23.112C17.832 22.248 19.128 21.048 20.328 18.984C23.592 13.224 28.584 15.864 30.168 17.736C30.36 17.928 30.6 17.832 30.6 17.832C30.6 17.832 34.488 16.056 36.12 19.656C36.504 20.52 36.6 22.968 36.6 22.968C36.6 22.968 38.616 23.304 39.432 23.88V20.088C39.48 12.696 34.92 12.6 34.728 12.6C34.536 12.6 34.392 12.6 34.296 12.312C33.864 10.92 29.4 6.312 21.912 9.24C14.424 12.168 14.52 22.68 14.52 22.68V24.696C15.096 24.504 15.816 23.976 16.824 23.112Z" fill="#6B363E"/>
<mask id="mask7_135_359" style="mask-type:luminance" maskUnits="userSpaceOnUse" x="14" y="8" width="26" height="17">
<path d="M16.824 23.112C17.832 22.248 19.128 21.048 20.328 18.984C23.592 13.224 28.584 15.864 30.168 17.736C30.36 17.928 30.6 17.832 30.6 17.832C30.6 17.832 34.488 16.056 36.12 19.656C36.504 20.52 36.6 22.968 36.6 22.968C36.6 22.968 38.616 23.304 39.432 23.88V20.088C39.48 12.696 34.92 12.6 34.728 12.6C34.536 12.6 34.392 12.6 34.296 12.312C33.864 10.92 29.4 6.312 21.912 9.24C14.424 12.168 14.52 22.68 14.52 22.68V24.696C15.096 24.504 15.816 23.976 16.824 23.112Z" fill="white"/>
</mask>
<g mask="url(#mask7_135_359)">
<path d="M30.2639 18.168C30.2639 18.168 31.7039 14.568 34.5839 12.36C37.4639 10.152 39.9599 15.912 39.9599 15.912L40.1039 25.32L30.2639 18.168Z" fill="#452228"/>
</g>
<path d="M38.52 22.2C38.52 16.104 33.096 11.16 27 11.16C20.904 11.16 15.48 16.104 15.48 22.2V26.04H16.44V22.2C16.392 16.92 21.672 12.552 27 12.6C32.328 12.552 37.608 16.92 37.56 22.2V26.52H38.52V22.2Z" fill="#C1CFD9"/>
<path d="M30.888 36.6L30.84 35.64C31.08 35.64 36.6 35.256 36.648 29.496H37.608C37.512 36.168 30.936 36.6 30.888 36.6Z" fill="#C1CFD9"/>
<path d="M30.024 35.112L32.808 34.344C33.336 34.2 33.864 34.488 33.96 35.016L34.2 35.928C34.344 36.456 34.056 36.984 33.528 37.08L30.744 37.848C30.216 37.992 29.688 37.704 29.592 37.176L29.352 36.264C29.208 35.784 29.544 35.256 30.024 35.112Z" fill="#40424C"/>
<path d="M19.128 32.04C16.68 32.28 14.472 30.6 13.992 28.152C13.512 25.704 15 23.4 17.304 22.68L19.128 32.04Z" fill="#4B4D59"/>
<mask id="mask8_135_359" style="mask-type:luminance" maskUnits="userSpaceOnUse" x="13" y="22" width="7" height="10">
<path d="M19.8454 31.2537C17.4883 31.9563 15.0004 30.7285 14.0621 28.4172C13.1239 26.1058 14.1449 23.5603 16.2691 22.4139L19.8454 31.2537Z" fill="white"/>
</mask>
<g mask="url(#mask8_135_359)">
<path d="M16.3986 22.8288L12.6293 23.5615L14.461 32.9848L18.2303 32.2522L16.3986 22.8288Z" fill="#9099A6"/>
</g>
<path d="M34.776 32.04C37.224 32.28 39.432 30.6 39.912 28.152C40.392 25.704 38.904 23.352 36.6 22.632L34.776 32.04Z" fill="#4B4D59"/>
<mask id="mask9_135_359" style="mask-type:luminance" maskUnits="userSpaceOnUse" x="36" y="24" width="7" height="10">
<path d="M42.9554 24.5879C40.5983 23.8853 38.1104 25.1131 37.1721 27.4244C36.2339 29.7358 37.2457 32.3284 39.37 33.4748L42.9554 24.5879Z" fill="white"/>
</mask>
<g mask="url(#mask9_135_359)">
<path d="M35.6922 32.271L39.4615 33.0036L41.2932 23.5803L37.5239 22.8476L35.6922 32.271Z" fill="#9099A6"/>
</g>
</g>
<defs>
<clipPath id="clip0_135_359">
<rect width="48" height="48" fill="white" transform="translate(3 3)"/>
</clipPath>
</defs>
</svg>
