<svg width="32" height="32" viewBox="0 0 32 32" fill="none" xmlns="http://www.w3.org/2000/svg">
<g clip-path="url(#clip0_131_252)">
<path d="M14.9368 23.8672H10.047V29.8466H14.9368V23.8672Z" fill="#A38671"/>
<path d="M21.953 23.8672H17.0632V29.8466H21.953V23.8672Z" fill="#E67E22"/>
<path d="M18.4454 16.851H13.5546V21.7407H18.4454V16.851Z" fill="#FFA800"/>
<path d="M25.4617 13.3423V29.8466H24.0795V22.8035C24.0795 22.2172 23.603 21.7407 23.0157 21.7407H20.5709V15.7872C20.5709 15.201 20.0954 14.7245 19.5081 14.7245H12.4919C11.9046 14.7245 11.4281 15.201 11.4281 15.7872V21.7407H8.98321C8.39592 21.7407 7.9205 22.2172 7.9205 22.8035V29.8466H6.53833V13.3423H25.4617Z" fill="#F0DEB4"/>
<path d="M28.9692 8.76339V29.8466H27.587V12.2796C27.587 11.6923 27.1116 11.2158 26.5243 11.2158H5.4755C4.88821 11.2158 4.41171 11.6923 4.41171 12.2796V29.8466H3.02954V8.76339L15.9994 2.27848L28.9692 8.76339Z" fill="#8E725E"/>
<path d="M31.0957 8.10716V30.9103C31.0957 31.4965 30.6192 31.973 30.033 31.973H1.96689C1.3796 31.973 0.904175 31.4965 0.904175 30.9103V8.10716C0.904175 7.7038 1.13113 7.33594 1.49146 7.15631L15.524 0.13897C15.8241 -0.0105409 16.1758 -0.0105409 16.4748 0.13897L30.5074 7.15631C30.8677 7.33594 31.0957 7.7038 31.0957 8.10716ZM28.9692 29.8466V8.76339L15.9994 2.27848L3.0296 8.76339V29.8466H4.41177V12.2796C4.41177 11.6923 4.88827 11.2158 5.47556 11.2158H26.5244C27.1116 11.2158 27.5871 11.6923 27.5871 12.2796V29.8466H28.9692ZM25.4616 29.8466V13.3423H6.53827V29.8466H7.92044V22.8035C7.92044 22.2172 8.39586 21.7407 8.98315 21.7407H11.428V15.7872C11.428 15.201 11.9045 14.7245 12.4918 14.7245H19.5081C20.0954 14.7245 20.5708 15.201 20.5708 15.7872V21.7407H23.0157C23.603 21.7407 24.0795 22.2172 24.0795 22.8035V29.8466H25.4616ZM21.953 29.8466V23.8672H17.0632V29.8466H21.953ZM18.4454 21.7406V16.8509H13.5545V21.7406H18.4454ZM14.9367 29.8466V23.8672H10.0469V29.8466H14.9367Z" fill="black"/>
</g>
<defs>
<clipPath id="clip0_131_252">
<rect width="32" height="32" fill="white"/>
</clipPath>
</defs>
</svg>
