<svg width="32" height="32" viewBox="0 0 32 32" fill="none" xmlns="http://www.w3.org/2000/svg">
<g clip-path="url(#clip0_135_447)">
<path d="M19.7184 25.5283H12.2361L11.7017 30.3383H20.2528L19.7184 25.5283Z" fill="#5B5D6E"/>
<path d="M19.9661 27.7578L19.7183 25.5283H12.236L11.9884 27.7578H19.9661Z" fill="#464655"/>
<path d="M30.4301 26.1545H1.56997C0.979599 26.1545 0.501099 25.676 0.501099 25.0856V5.8455C0.501099 5.25512 0.979599 4.77662 1.56997 4.77662H30.4301C31.0205 4.77662 31.499 5.25512 31.499 5.8455V25.0856C31.499 25.6759 31.0204 26.1545 30.4301 26.1545Z" fill="#707487"/>
<path d="M16 6.91444C17.4759 6.91444 18.6723 5.71803 18.6723 4.24219C18.6723 2.76634 17.4759 1.56994 16 1.56994C14.5242 1.56994 13.3278 2.76634 13.3278 4.24219C13.3278 5.71803 14.5242 6.91444 16 6.91444Z" fill="#959CB5"/>
<path d="M18.6722 6.91437H2.63879V24.0167H18.6722V6.91437Z" fill="#FFDC64"/>
<path d="M14.7346 22.1698L12.9898 21.5881C12.5533 21.4426 12.2589 21.0341 12.2589 20.574V19.2067H9.05221V20.5741C9.05221 21.0341 8.75783 21.4426 8.32133 21.5881L6.57646 22.1698C6.13996 22.3153 5.84558 22.7237 5.84558 23.1839V24.0168H15.4656V23.1838C15.4655 22.7237 15.1711 22.3153 14.7346 22.1698Z" fill="#D29B6E"/>
<path d="M14.7347 22.1698L12.9898 21.5881C12.885 21.5531 12.7895 21.5014 12.7032 21.4391C12.213 22.0294 11.4828 22.4134 10.6556 22.4134C9.82833 22.4134 9.09821 22.0294 8.60796 21.4391C8.52164 21.5014 8.42621 21.5532 8.32133 21.5881L6.57646 22.1698C6.13996 22.3153 5.84558 22.7237 5.84558 23.1838V24.0168H15.4656V23.1838C15.4656 22.7237 15.1712 22.3153 14.7347 22.1698Z" fill="#959CB5"/>
<path d="M10.6555 12.7933C11.8362 12.7933 12.7933 11.9558 12.7933 10.9228C12.7933 9.88967 11.8362 9.05219 10.6555 9.05219C9.47483 9.05219 8.5177 9.88967 8.5177 10.9228C8.5177 11.9558 9.47483 12.7933 10.6555 12.7933Z" fill="#694B4B"/>
<path d="M10.6556 18.6723C13.0169 18.6723 14.9311 16.8776 14.9311 14.6639C14.9311 12.4501 13.0169 10.6555 10.6556 10.6555C8.29424 10.6555 6.38 12.4501 6.38 14.6639C6.38 16.8776 8.29424 18.6723 10.6556 18.6723Z" fill="#694B4B"/>
<path d="M11.6886 10.7782C11.3572 10.701 11.0124 10.6555 10.6556 10.6555C8.29425 10.6555 6.38 12.4501 6.38 14.6639C6.38 16.5647 7.79294 18.153 9.68688 18.565C9.68688 17.8772 9.68688 16.8538 9.68688 15.3319C9.68688 13.0167 10.8016 11.5679 11.6886 10.7782Z" fill="#5A4146"/>
<path d="M13.3505 18.9281L11.6116 19.7976C11.0097 20.0984 10.3014 20.0984 9.69948 19.7976L7.96054 18.9281C7.64085 18.7682 7.42229 18.4593 7.37791 18.1046L7.05329 15.5077C7.01504 15.2016 7.24148 14.9284 7.54923 14.9083C8.54535 14.8431 10.6229 14.5931 11.9035 13.6341C12.1195 13.4723 12.421 13.5008 12.6056 13.6977L14.0914 15.2823C14.2001 15.3982 14.2515 15.5565 14.2319 15.7141L13.933 18.1046C13.8889 18.4592 13.6702 18.7682 13.3505 18.9281Z" fill="#F0C087"/>
<path d="M14.0915 15.2823L12.6056 13.6976C12.4198 13.4994 12.1172 13.4746 11.8995 13.6371C11.2507 14.1216 10.3991 14.4236 9.58664 14.6133V14.6133C8.79208 14.7988 8.03508 14.8767 7.54414 14.9087C7.23452 14.9289 7.01483 15.2 7.05333 15.5078L7.37789 18.1046C7.42227 18.4593 7.64083 18.7683 7.96058 18.9281L9.69952 19.7976C9.9592 19.9274 10.2395 19.99 10.5217 20.0079L9.8687 18.702C9.6832 18.331 9.58658 17.9219 9.58658 17.5071V16.6797C9.58658 16.4295 9.76027 16.2177 10.0036 16.1596C10.6827 15.9974 11.3881 15.7659 12.0345 15.4326L12.9218 16.379C13.2196 16.6967 13.6609 16.9432 14.0843 16.8951L14.2319 15.7141C14.2516 15.5565 14.2002 15.3982 14.0915 15.2823Z" fill="#E6AF78"/>
<path d="M29.3612 6.91437H18.6722V15.4655H29.3612V6.91437Z" fill="#7DF5A5"/>
<path d="M26.4138 13.777L25.4905 13.5462C25.2526 13.4868 25.0857 13.2729 25.0857 13.0277V12.6451C25.4038 12.4599 25.6201 12.1191 25.6201 11.7244V9.05219H23.4823C22.892 9.05219 22.4134 9.53069 22.4134 10.1211V11.7244C22.4134 12.119 22.6297 12.4598 22.9479 12.645V13.0276C22.9479 13.2729 22.781 13.4866 22.543 13.5461L21.6197 13.7769C21.1438 13.8959 20.8101 14.3235 20.8101 14.8139V15.4655H27.2234V14.8139C27.2234 14.3234 26.8897 13.8959 26.4138 13.777Z" fill="#F0C087"/>
<path d="M25.62 9.05219H23.4822C22.8918 9.05219 22.4133 9.53069 22.4133 10.1211V11.1899C22.4133 11.1899 24.0166 11.1899 25.62 10.6555V9.05219Z" fill="#694B4B"/>
<path d="M26.4138 13.777L25.674 13.5921C25.2839 14.08 24.6904 14.3967 24.0167 14.3967C23.3431 14.3967 22.7496 14.0799 22.3595 13.5921L21.6197 13.777C21.1438 13.896 20.8101 14.3236 20.8101 14.8139V15.4656H27.2234V14.8139C27.2234 14.3234 26.8897 13.8959 26.4138 13.777Z" fill="#707487"/>
<path d="M29.3612 15.4656H18.6722V24.0167H29.3612V15.4656Z" fill="#00C3FF"/>
<path d="M26.4138 22.3281L25.4905 22.0973C25.2526 22.0379 25.0857 21.8241 25.0857 21.5788V21.1962C25.4038 21.0111 25.6201 20.6702 25.6201 20.2756V17.6033H23.4823C22.892 17.6033 22.4134 18.0818 22.4134 18.6722V20.2755C22.4134 20.6701 22.6297 21.0109 22.9479 21.1961V21.5788C22.9479 21.824 22.781 22.0377 22.543 22.0972L21.6197 22.3281C21.1438 22.4471 20.8101 22.8746 20.8101 23.365V24.0166H27.2234V23.365C27.2234 22.8746 26.8897 22.447 26.4138 22.3281Z" fill="#F0C087"/>
<path d="M25.62 17.6033H23.4822C22.8918 17.6033 22.4133 18.0818 22.4133 18.6722V19.7411C22.4133 19.7411 24.0166 19.7411 25.62 19.2066V17.6033Z" fill="#694B4B"/>
<path d="M26.4138 22.3281L25.674 22.1432C25.2839 22.6311 24.6904 22.9478 24.0167 22.9478C23.3431 22.9478 22.7496 22.6311 22.3595 22.1432L21.6197 22.3281C21.1438 22.4471 20.8101 22.8747 20.8101 23.3651V24.0167H27.2234V23.3651C27.2234 22.8746 26.8897 22.447 26.4138 22.3281Z" fill="#FFDC64"/>
<path d="M30.4301 4.27556H19.1724C19.1726 4.26437 19.1733 4.25337 19.1733 4.24219C19.1733 2.4925 17.7498 1.06894 16.0001 1.06894C14.2504 1.06894 12.8268 2.4925 12.8268 4.24219C12.8268 4.25344 12.8276 4.26444 12.8277 4.27556H1.56994C0.70425 4.27556 0 4.97981 0 5.8455V25.0856C0 25.9513 0.70425 26.6556 1.56994 26.6556H11.6913L11.2821 29.9291H10.1211C9.84444 29.9291 9.62006 30.1534 9.62006 30.4301C9.62006 30.7069 9.84438 30.9312 10.1211 30.9312H21.8789C22.1556 30.9312 22.38 30.7069 22.38 30.4301C22.38 30.1534 22.1557 29.9291 21.8789 29.9291H20.7179L20.3088 26.6556H30.4301C31.2958 26.6556 32.0001 25.9513 32.0001 25.0856V5.8455C32 4.97981 31.2958 4.27556 30.4301 4.27556ZM28.8601 7.41544V14.9645H27.7244V14.8139C27.7244 14.0922 27.2354 13.4659 26.5352 13.2909L25.5867 13.0537V12.8986C25.9219 12.6034 26.1211 12.1755 26.1211 11.7244V9.05212C26.1211 8.77544 25.8968 8.55106 25.6201 8.55106H23.4823C22.6166 8.55106 21.9123 9.25531 21.9123 10.121V11.7243C21.9123 12.1754 22.1116 12.6033 22.4468 12.8985V13.0536L21.4981 13.2908C20.798 13.4658 20.309 14.0921 20.309 14.8139V14.9644H19.1733V7.41544H28.8601ZM23.1998 20.7632C23.0211 20.6592 22.9144 20.4769 22.9144 20.2756V18.6723C22.9144 18.3591 23.1692 18.1044 23.4823 18.1044H25.1191V20.2756C25.1191 20.4769 25.0124 20.6592 24.8337 20.7632C24.6795 20.8529 24.5846 21.0179 24.5846 21.1963V21.9961C24.5846 22.226 24.7411 22.4264 24.9641 22.4822L26.2922 22.8142C26.5455 22.8775 26.7224 23.1041 26.7224 23.3651V23.5156H21.3112V23.3651C21.3112 23.104 21.488 22.8774 21.7413 22.8141L23.0695 22.4822C23.2926 22.4264 23.449 22.226 23.449 21.9961V21.1963C23.4489 21.0178 23.354 20.8529 23.1998 20.7632ZM26.5352 21.8421L25.5866 21.6049V21.4498C25.9218 21.1546 26.1211 20.7267 26.1211 20.2756V17.6033C26.1211 17.3266 25.8968 17.1022 25.62 17.1022H23.4822C22.6165 17.1022 21.9123 17.8065 21.9123 18.6722V20.2755C21.9123 20.7266 22.1116 21.1545 22.4467 21.4497V21.6048L21.4981 21.842C20.7979 22.0171 20.3089 22.6433 20.3089 23.3651V23.5156H19.1733V15.9666H28.8601V23.5157H27.7244V23.3651C27.7244 22.6434 27.2354 22.0171 26.5352 21.8421ZM23.1998 12.2121C23.0211 12.1081 22.9144 11.9258 22.9144 11.7244V10.1211C22.9144 9.808 23.1692 9.55325 23.4823 9.55325H25.1191V11.7244C25.1191 11.9258 25.0124 12.1081 24.8337 12.2121C24.6795 12.3018 24.5846 12.4668 24.5846 12.6451V13.445C24.5846 13.6749 24.7411 13.8753 24.9641 13.9311L26.2922 14.2631C26.5455 14.3264 26.7224 14.5529 26.7224 14.814V14.9645H21.3111V14.8139C21.3111 14.5529 21.4879 14.3264 21.7412 14.2631L23.0694 13.9311C23.2925 13.8754 23.4489 13.6749 23.4489 13.445V12.6451C23.4489 12.4666 23.354 12.3018 23.1998 12.2121ZM18.1712 23.5157H15.9666V23.1838C15.9666 22.507 15.5352 21.9084 14.8931 21.6944L13.1482 21.1127C13.1152 21.1017 13.0842 21.0873 13.0545 21.0709C13.0485 21.0654 13.0429 21.0597 13.0365 21.0545C13.0101 21.0326 12.9821 21.0141 12.9529 20.9985C12.8334 20.893 12.7599 20.7407 12.7599 20.574V19.7835L13.5746 19.3761C14.0451 19.1408 14.3651 18.6887 14.4303 18.1667L14.5559 17.1618C15.129 16.4093 15.4322 15.5247 15.4322 14.6007C15.4322 13.0354 14.5578 11.6574 13.2406 10.8649C13.2759 10.7089 13.2944 10.5496 13.2944 10.3884C13.2944 9.08063 12.1106 8.01675 10.6556 8.01675C9.20056 8.01675 8.01675 9.08063 8.01675 10.3884C8.01675 10.5494 8.03487 10.7089 8.07025 10.8651C6.75319 11.6576 5.87894 13.0355 5.87894 14.6007C5.87894 15.5272 6.18175 16.4094 6.75513 17.1616L6.88081 18.1668C6.94606 18.6888 7.26594 19.1411 7.7365 19.3762L8.55119 19.7836V20.5741C8.55119 20.819 8.39519 21.0354 8.16294 21.1127L6.41806 21.6944C5.776 21.9084 5.34456 22.507 5.34456 23.1838V23.5157H3.13987V7.41544H18.1712V23.5157ZM6.34656 23.5157V23.1838C6.34656 22.9389 6.50263 22.7225 6.73481 22.6451L8.47969 22.0634C8.48319 22.0623 8.48644 22.0607 8.48994 22.0595C9.07494 22.6057 9.84825 22.9144 10.6555 22.9144C11.4674 22.9144 12.2364 22.6064 12.821 22.0595C12.8245 22.0607 12.8278 22.0623 12.8313 22.0634L14.5762 22.6451C14.8085 22.7225 14.9644 22.9389 14.9644 23.1838V23.5157H6.34656ZM9.01881 10.3883C9.01881 9.63312 9.75306 9.01881 10.6556 9.01881C11.5581 9.01881 12.2923 9.63319 12.2923 10.3883C12.2923 10.3999 12.291 10.4114 12.2906 10.423C11.7803 10.2494 11.2296 10.1545 10.6556 10.1545C10.0814 10.1545 9.53069 10.2494 9.02038 10.423C9.02 10.4114 9.01881 10.3999 9.01881 10.3883ZM10.6556 11.1566C12.7368 11.1566 14.4301 12.7016 14.4301 14.6007C14.4301 14.6996 14.425 14.7979 14.4158 14.8956L12.6244 12.9851C12.5316 12.8861 12.4026 12.829 12.2669 12.8268C12.1308 12.8251 12.0004 12.8776 11.9045 12.9735C10.4683 14.4097 7.01556 14.4302 6.98112 14.4303C6.94875 14.4303 6.91675 14.4338 6.88538 14.4399C6.97788 12.6152 8.63331 11.1566 10.6556 11.1566ZM7.54625 15.4114C8.58594 15.3472 10.8126 15.0855 12.222 14.021L13.7367 15.6365L13.4361 18.0425C13.4124 18.2314 13.2967 18.3949 13.1266 18.48L11.3876 19.3495C10.9292 19.5786 10.382 19.5786 9.92362 19.3495L8.18469 18.48C8.01444 18.3949 7.89875 18.2314 7.87519 18.0425L7.54625 15.4114ZM9.55325 20.2818C9.90156 20.4418 10.2784 20.5229 10.6556 20.5229C11.0327 20.5229 11.4096 20.4418 11.7579 20.2818V20.5741C11.7579 20.8878 11.8515 21.1841 12.0149 21.4336C11.6327 21.7411 11.1561 21.9123 10.6556 21.9123C10.1579 21.9123 9.67919 21.7407 9.29638 21.4334C9.45969 21.1839 9.55325 20.8877 9.55325 20.5741V20.2818ZM16 2.071C17.1972 2.071 18.1712 3.045 18.1712 4.24219C18.1712 5.43937 17.1972 6.41337 16 6.41337C14.8028 6.41337 13.8288 5.43937 13.8288 4.24219C13.8288 3.045 14.8028 2.071 16 2.071ZM19.708 29.929H12.292L12.7012 26.6555H19.2989L19.708 29.929ZM30.9979 25.0856C30.9979 25.3987 30.7432 25.6535 30.4301 25.6535H1.56994C1.25681 25.6535 1.00206 25.3987 1.00206 25.0856V5.8455C1.00206 5.53237 1.25681 5.27763 1.56994 5.27763H13.0011C13.1491 5.70481 13.3856 6.09056 13.6889 6.41331H2.63881C2.36213 6.41331 2.13775 6.63762 2.13775 6.91437V24.0167C2.13775 24.2934 2.36206 24.5177 2.63881 24.5177H29.3611C29.6378 24.5177 29.8622 24.2934 29.8622 24.0167V6.91437C29.8622 6.63769 29.6379 6.41331 29.3611 6.41331H18.3111C18.6144 6.09056 18.851 5.70475 18.9989 5.27763H30.43C30.7431 5.27763 30.9979 5.53237 30.9979 5.8455V25.0856H30.9979Z" fill="black"/>
<path d="M16 5.27769C16.571 5.27769 17.0355 4.81319 17.0355 4.24219C17.0355 3.67119 16.571 3.20669 16 3.20669C15.429 3.20669 14.9645 3.67119 14.9645 4.24219C14.9645 4.81319 15.429 5.27769 16 5.27769Z" fill="black"/>
</g>
<defs>
<clipPath id="clip0_135_447">
<rect width="32" height="32" fill="white"/>
</clipPath>
</defs>
</svg>
