<svg width="9" height="16" viewBox="0 0 9 16" fill="none" xmlns="http://www.w3.org/2000/svg">
<path d="M0.772125 1.2457L7.50988 8.04154L0.714045 14.7788C0.525645 14.9653 0.524685 15.2694 0.711165 15.4575C0.897645 15.6457 1.20172 15.6469 1.38964 15.4604L8.45717 8.45386C8.54549 8.36626 8.59228 8.25346 8.59852 8.13898C8.60044 8.10562 8.59829 8.07226 8.59349 8.03938C8.59541 8.02642 8.59852 8.01394 8.59876 8.00098C8.60572 7.87042 8.55989 7.73722 8.46053 7.63738L1.45348 0.570098C1.267 0.381698 0.963165 0.380497 0.774765 0.567217C0.586365 0.753937 0.585405 1.05778 0.772125 1.2457Z" fill="#DABEFF"/>
</svg>
