<svg width="24" height="24" viewBox="0 0 24 24" fill="none" xmlns="http://www.w3.org/2000/svg">
<g clip-path="url(#clip0_95_124)">
<path d="M23.9959 1.01273C23.9947 0.995491 23.9935 0.978255 23.9915 0.961236C23.9894 0.943855 23.9865 0.926618 23.9836 0.909382C23.9805 0.891055 23.9775 0.872727 23.9735 0.854691C23.97 0.838691 23.9655 0.822982 23.9612 0.807127C23.9564 0.788727 23.9515 0.770255 23.9456 0.752291C23.9405 0.736436 23.9343 0.720873 23.9284 0.705236C23.9219 0.688073 23.9156 0.670836 23.9083 0.654109C23.9012 0.637746 23.893 0.621818 23.885 0.605746C23.8774 0.5904 23.87 0.574909 23.8617 0.56C23.8527 0.543782 23.8426 0.528145 23.8327 0.512291C23.8238 0.498036 23.8151 0.483709 23.8054 0.469891C23.7951 0.455055 23.7839 0.4408 23.7729 0.4264C23.762 0.412145 23.751 0.397964 23.7394 0.384364C23.7286 0.371564 23.7169 0.359273 23.7054 0.346909C23.6919 0.332509 23.6783 0.318327 23.6641 0.304582C23.6593 0.3 23.6551 0.294909 23.6503 0.2904C23.6431 0.283782 23.6354 0.278255 23.6281 0.271927C23.6132 0.258764 23.598 0.246036 23.5824 0.233673C23.5691 0.2232 23.5556 0.213164 23.5419 0.203418C23.5269 0.192655 23.5116 0.182255 23.496 0.172291C23.481 0.162691 23.466 0.153527 23.4506 0.144727C23.4354 0.135927 23.4198 0.127636 23.4041 0.119564C23.388 0.111345 23.3719 0.103491 23.3556 0.0962182C23.3395 0.0890182 23.3234 0.0823273 23.307 0.0759273C23.2903 0.0693818 23.2736 0.0632 23.2567 0.0575273C23.24 0.0519273 23.2231 0.0467636 23.206 0.0419636C23.1888 0.0370909 23.1714 0.0325818 23.154 0.0285818C23.137 0.0246545 23.1199 0.0212364 23.1027 0.0181091C23.0843 0.0147636 23.0658 0.012 23.0472 0.0096C23.0307 0.00749091 23.0142 0.00574545 22.9975 0.00436364C22.9775 0.00276364 22.9575 0.00181818 22.9376 0.00130909C22.928 0.00123636 22.9186 0 22.909 0H18.5453C17.9428 0 17.4544 0.488436 17.4544 1.09091C17.4544 1.69338 17.9428 2.18182 18.5453 2.18182H20.4122L13.7878 9.33607L10.953 6.50131C10.7434 6.29164 10.4582 6.17782 10.1609 6.18196C9.86445 6.18764 9.58306 6.31367 9.38146 6.53113L0.290555 16.3397C-0.118972 16.7816 -0.0927904 17.4718 0.349101 17.8814C0.559137 18.076 0.825101 18.1722 1.09041 18.1722C1.3835 18.1722 1.67586 18.0548 1.89085 17.8229L10.2115 8.84538L13.0466 11.6805C13.2564 11.8903 13.5446 12.0065 13.839 11.9999C14.1355 11.9942 14.417 11.8679 14.6185 11.6503L21.818 3.87476V5.45455C21.818 6.05702 22.3065 6.54545 22.909 6.54545C23.5114 6.54545 23.9999 6.05702 23.9999 5.45455V1.09091C23.9999 1.08407 23.999 1.07753 23.9988 1.07076C23.9985 1.05142 23.9973 1.03207 23.9959 1.01273Z" fill="#9D50BB"/>
<path d="M22.9091 21.8182H1.09091C0.488436 21.8182 0 22.3066 0 22.9091C0 23.5116 0.488436 24 1.09091 24H22.9091C23.5116 24 24 23.5116 24 22.9091C24 22.3066 23.5116 21.8182 22.9091 21.8182Z" fill="#9D50BB"/>
</g>
<defs>
<clipPath id="clip0_95_124">
<rect width="24" height="24" fill="white"/>
</clipPath>
</defs>
</svg>
