<svg width="24" height="24" viewBox="0 0 24 24" fill="none" xmlns="http://www.w3.org/2000/svg">
<path d="M14.016 3.35175V6.84375H15.8445L12.1883 11.25L8.532 6.84375H10.4543V3.35175H14.0168H14.016ZM17.1097 9L19.2428 12.375C19.3597 12.6562 19.5007 13.1955 19.5007 13.5232V20.0152C19.5007 20.367 19.2195 20.625 18.891 20.625H5.508C5.15625 20.625 4.875 20.367 4.875 20.0152V13.5232C4.875 13.1947 4.992 12.6562 5.10975 12.375L7.24275 9C7.35975 8.6955 7.782 8.4375 8.0865 8.4375H9.04725L10.032 9.633H8.06325L6.165 13.1017C6.14175 13.1017 6.14175 13.125 6.14175 13.149C6.14175 13.1962 6.14175 13.2195 6.1185 13.2427H18.2355V13.149C18.2355 13.1257 18.2123 13.1017 18.2123 13.0785L16.314 9.633H14.3453L15.33 8.4375H16.2675C16.596 8.4375 16.9943 8.6955 17.1112 9H17.1097ZM10.4767 15.7732H13.9222C14.2267 15.7732 14.508 15.492 14.508 15.1635C14.508 14.859 14.2267 14.5777 13.9222 14.5777H10.4767C10.1483 14.5777 9.867 14.859 9.867 15.1635C9.867 15.492 10.1483 15.7732 10.4767 15.7732Z" fill="white"/>
</svg>
