<svg width="16" height="16" viewBox="0 0 16 16" fill="none" xmlns="http://www.w3.org/2000/svg">
<path fill-rule="evenodd" clip-rule="evenodd" d="M10.8176 6.18146C10.8176 8.74193 8.74193 10.8176 6.18146 10.8176C3.62102 10.8176 1.54537 8.74193 1.54537 6.18146C1.54537 3.62102 3.62102 1.54537 6.18146 1.54537C8.74193 1.54537 10.8176 3.62102 10.8176 6.18146ZM9.97204 11.0647C8.92521 11.8784 7.6099 12.3629 6.18146 12.3629C2.76753 12.3629 0 9.59538 0 6.18146C0 2.76753 2.76753 0 6.18146 0C9.59538 0 12.3629 2.76753 12.3629 6.18146C12.3629 7.6099 11.8784 8.92521 11.0647 9.97194L16.0001 14.9073L14.9073 16L9.97204 11.0647Z" fill="#080341"/>
</svg>
