<svg width="21" height="21" viewBox="0 0 21 21" fill="none" xmlns="http://www.w3.org/2000/svg">
<path d="M8 9C10.2091 9 12 7.20914 12 5C12 2.79086 10.2091 1 8 1C5.79086 1 4 2.79086 4 5C4 7.20914 5.79086 9 8 9Z" stroke="#0082C8" stroke-width="2"/>
<path d="M14 8C15.6569 8 17 6.65685 17 5C17 3.34315 15.6569 2 14 2" stroke="#0082C8" stroke-width="2" stroke-linecap="round"/>
<path d="M8 20C11.866 20 15 18.2091 15 16C15 13.7909 11.866 12 8 12C4.13401 12 1 13.7909 1 16C1 18.2091 4.13401 20 8 20Z" stroke="#0082C8" stroke-width="2"/>
<path d="M17 13C18.7542 13.3847 20 14.3589 20 15.5C20 16.5293 18.9863 17.4229 17.5 17.8704" stroke="#0082C8" stroke-width="2" stroke-linecap="round"/>
</svg>
