<svg height="64px" width="64px" version="1.1" id="Layer_1" xmlns="http://www.w3.org/2000/svg" xmlns:xlink="http://www.w3.org/1999/xlink" viewBox="0 0 408.761 408.761" xml:space="preserve" fill="#000000">
	<g id="SVGRepo_bgCarrier" stroke-width="0">
	</g>
	<g id="SVGRepo_tracerCarrier" stroke-linecap="round" stroke-linejoin="round">
	</g>
	<g id="SVGRepo_iconCarrier">
		<g>
			<path style="fill:#FFBE00;" d="M204.384,408.761c-58.121,0-113.675-24.868-152.417-68.227 C18.461,303.059,0.005,254.703,0.005,204.381C0.005,91.685,91.691,0,204.384,0c50.319,0,98.676,18.455,136.165,51.964 c43.348,38.762,68.207,94.316,68.207,152.417C408.756,317.076,317.075,408.761,204.384,408.761">
			</path>
			<path style="fill:#F4502A;" d="M377.751,204.379c0,18.08-2.77,35.521-7.909,51.901c-1.71,5.459-3.68,10.799-5.911,16.01 c-18.64,43.769-54.76,78.299-99.59,94.8c-13.49,4.979-27.76,8.33-42.579,9.8c-5.721,0.58-11.51,0.87-17.38,0.87 c-51.39,0-97.559-22.361-129.301-57.881c-0.259-0.29-0.519-0.589-0.789-0.879c-26.951-30.562-43.291-70.681-43.291-114.622 c0-95.749,77.619-173.38,173.38-173.38c43.949,0,84.069,16.35,114.631,43.291c0.29,0.27,0.589,0.53,0.879,0.79 C355.401,106.84,377.751,152.989,377.751,204.379">
			</path>
			<path style="fill:#C29100;" d="M74.636,319.38c0.072,0.081,0.144,0.162,0.216,0.243C74.781,319.542,74.709,319.461,74.636,319.38">
			</path>
			<path style="fill:#BA3D20;" d="M204.384,31.001c-95.76,0-173.38,77.619-173.38,173.37c0,44.132,16.479,84.406,43.631,115.009 c0.073,0.081,0.145,0.162,0.216,0.243c5.457,6.127,11.345,11.867,17.612,17.168c-25.53-30.2-40.919-69.241-40.919-111.88 c0-95.751,77.619-173.37,173.38-173.37c42.631,0,81.68,15.39,111.87,40.919C305.005,54.871,257.486,31.001,204.384,31.001">
			</path>
			<path style="fill:#BA3D20;" d="M206.741,139.649L193.38,296.13l70.96,70.96c44.831-16.501,80.95-51.031,99.59-94.8L241.59,149.95 L206.741,139.649">
			</path>
			<polygon style="fill:#FFFFFF;" points="204.38,112.635 241.592,149.947 215.38,149.947 215.38,296.126 193.38,296.126 193.38,149.947 167.168,149.947 ">
			</polygon>
		</g>
	</g>
</svg>
