<svg width="22" height="22" viewBox="0 0 22 22" fill="none" xmlns="http://www.w3.org/2000/svg">
<path id="Vector" d="M19.0617 17.6975C20.1385 16.4016 20.8873 14.8654 21.2449 13.2189C21.6025 11.5724 21.5583 9.86398 21.1161 8.23816C20.6738 6.61235 19.8465 5.11696 18.7041 3.87848C17.5617 2.63999 16.1379 1.69485 14.553 1.12299C12.9681 0.551125 11.2688 0.369366 9.59886 0.593084C7.92889 0.816802 6.33736 1.43942 4.95888 2.40826C3.5804 3.37711 2.45553 4.66369 1.67941 6.15919C0.903286 7.65468 0.498746 9.3151 0.500003 11C0.50059 13.4496 1.36386 15.8208 2.93833 17.6975L2.92333 17.7099C2.97583 17.7733 3.03583 17.8275 3.08998 17.8893C3.15748 17.967 3.22978 18.0393 3.29998 18.1149C3.50998 18.3424 3.72553 18.5613 3.95248 18.7674C4.0211 18.8298 4.09228 18.8883 4.16248 18.9487C4.40248 19.1556 4.64878 19.3516 4.90498 19.5347C4.93805 19.5581 4.96738 19.5867 5.00068 19.6101V19.6006C6.75726 20.8367 8.85276 21.5001 11.0007 21.5001C13.1486 21.5001 15.2441 20.8367 17.0007 19.6006V19.61C17.034 19.5865 17.0633 19.5579 17.0964 19.5345C17.3523 19.3515 17.5989 19.1555 17.8389 18.9486C17.9091 18.8886 17.9803 18.8296 18.0489 18.7673C18.2758 18.5611 18.4914 18.3422 18.7014 18.1148C18.7714 18.0393 18.8434 17.9669 18.9114 17.8892C18.9653 17.8273 19.0255 17.7732 19.078 17.7098L19.0617 17.6975ZM11 4.99999C11.6675 4.99999 12.32 5.19793 12.8751 5.56878C13.4301 5.93963 13.8627 6.46673 14.1181 7.08343C14.3735 7.70013 14.4404 8.37873 14.3102 9.03342C14.1799 9.6881 13.8585 10.2895 13.3865 10.7615C12.9145 11.2335 12.3131 11.5549 11.6584 11.6851C11.0037 11.8154 10.3251 11.7485 9.70845 11.4931C9.09175 11.2376 8.56464 10.8051 8.19379 10.25C7.82294 9.69502 7.625 9.0425 7.625 8.37499C7.625 7.47988 7.98058 6.62144 8.61352 5.9885C9.24645 5.35557 10.1049 4.99999 11 4.99999ZM5.00533 17.6975C5.01828 16.7127 5.41845 15.7726 6.11926 15.0807C6.82006 14.3887 7.76514 14.0005 8.75 14H13.25C14.2349 14.0005 15.1799 14.3887 15.8807 15.0807C16.5815 15.7726 16.9817 16.7127 16.9947 17.6975C15.3498 19.1797 13.2142 20 11 20C8.78584 20 6.65019 19.1797 5.00533 17.6975Z" fill="#180630"/>
</svg>
