<svg width="24" height="24" viewBox="0 0 24 24" fill="none" xmlns="http://www.w3.org/2000/svg">
<path fill-rule="evenodd" clip-rule="evenodd" d="M14.28 7.56C14.28 8.81921 13.2592 9.84 12 9.84C10.7407 9.84 9.71997 8.81921 9.71997 7.56C9.71997 6.30079 10.7407 5.28 12 5.28C13.2592 5.28 14.28 6.30079 14.28 7.56Z" stroke="#180630" stroke-linecap="round" stroke-linejoin="round"/>
<path fill-rule="evenodd" clip-rule="evenodd" d="M16.56 15.624C16.56 17.352 14.5181 18.7603 12 18.7603C9.48192 18.7603 7.44 17.3558 7.44 15.624C7.44 13.8922 9.48192 12.4886 12 12.4886C14.5181 12.4886 16.56 13.8922 16.56 15.624Z" stroke="#180630" stroke-linecap="round" stroke-linejoin="round"/>
<path fill-rule="evenodd" clip-rule="evenodd" d="M19.104 9.65089C19.1137 10.2062 18.7867 10.7124 18.2764 10.9317C17.7661 11.1511 17.1738 11.04 16.7775 10.6507C16.3813 10.2614 16.2597 9.67121 16.47 9.15707C16.6803 8.64293 17.1806 8.30698 17.736 8.30689C18.4848 8.3005 19.0971 8.90209 19.104 9.65089Z" stroke="#180630" stroke-linecap="round" stroke-linejoin="round"/>
<path fill-rule="evenodd" clip-rule="evenodd" d="M4.89602 9.65089C4.88628 10.2062 5.21333 10.7124 5.72367 10.9317C6.23402 11.1511 6.82631 11.04 7.22255 10.6507C7.61878 10.2614 7.74028 9.67121 7.53002 9.15707C7.31978 8.64293 6.8195 8.30698 6.26403 8.30689C5.51523 8.3005 4.90289 8.90209 4.89602 9.65089Z" stroke="#180630" stroke-linecap="round" stroke-linejoin="round"/>
<path d="M18.4482 17.1475C18.0521 17.112 17.7023 17.4043 17.6669 17.8004C17.6313 18.1965 17.9237 18.5463 18.3198 18.5818L18.4482 17.1475ZM21.12 15.624L21.8357 15.7024C21.8414 15.6502 21.8414 15.5975 21.8357 15.5453L21.12 15.624ZM18.3198 12.6672C17.9237 12.7026 17.6313 13.0524 17.6669 13.4485C17.7023 13.8446 18.0522 14.137 18.4482 14.1014L18.3198 12.6672ZM5.68019 18.5818C6.07625 18.5463 6.36857 18.1965 6.33311 17.8004C6.29764 17.4043 5.94782 17.112 5.55176 17.1475L5.68019 18.5818ZM2.87998 15.624L2.16429 15.5453C2.15855 15.5975 2.15854 15.6502 2.16426 15.7024L2.87998 15.624ZM5.55173 14.1014C5.94779 14.137 6.29762 13.8446 6.33311 13.4485C6.36859 13.0524 6.07628 12.7026 5.68022 12.6672L5.55173 14.1014ZM18.3198 18.5818C20.0802 18.7394 21.6432 17.4594 21.8357 15.7024L20.4043 15.5456C20.2972 16.523 19.4276 17.2352 18.4482 17.1475L18.3198 18.5818ZM21.8357 15.5453C21.6426 13.7888 20.0798 12.5095 18.3198 12.6672L18.4482 14.1014C19.4274 14.0137 20.2969 14.7254 20.4043 15.7026L21.8357 15.5453ZM5.55176 17.1475C4.57233 17.2352 3.70278 16.523 3.59569 15.5456L2.16426 15.7024C2.35674 17.4594 3.91971 18.7394 5.68019 18.5818L5.55176 17.1475ZM3.59567 15.7026C3.7031 14.7254 4.57254 14.0137 5.55173 14.1014L5.68022 12.6672C3.92017 12.5095 2.35739 13.7888 2.16429 15.5453L3.59567 15.7026Z" fill="#180630"/>
</svg>
